<?xml version="1.0" encoding="UTF-8" standalone="no"?>
<!DOCTYPE svg PUBLIC "-//W3C//DTD SVG 1.1//EN" "http://www.w3.org/Graphics/SVG/1.1/DTD/svg11.dtd">
<svg width="100%" height="100%" viewBox="0 0 750 500" version="1.1" xmlns="http://www.w3.org/2000/svg" xmlns:xlink="http://www.w3.org/1999/xlink" xml:space="preserve" xmlns:serif="http://www.serif.com/" style="fill-rule:evenodd;clip-rule:evenodd;stroke-linejoin:round;stroke-miterlimit:2;">
    <g id="BACKGROUND">
        <rect x="125" y="0" width="499.999" height="500" style="fill:white;"/>
        <rect x="0" y="0" width="750" height="500" style="fill:white;"/>
    </g> 
    <g id="OBJECTS">
        <g transform="matrix(1,0,0,1,406.041,84.5499)">
            <path d="M0,-6.13C0,-6.635 -0.408,-7.045 -0.914,-7.045C-1.42,-7.045 -1.828,-6.635 -1.828,-6.13L-1.828,-3.98L-3.979,-3.98C-4.484,-3.98 -4.893,-3.57 -4.893,-3.066C-4.893,-2.561 -4.484,-2.151 -3.979,-2.151L-1.828,-2.151L-1.828,0C-1.828,0.505 -1.42,0.915 -0.914,0.915C-0.408,0.915 0,0.505 0,0L0,-2.151L2.15,-2.151C2.656,-2.151 3.066,-2.561 3.066,-3.066C3.066,-3.57 2.656,-3.98 2.15,-3.98L0,-3.98L0,-6.13Z" style="fill:rgb(159,178,217);"/>
        </g>
        <g transform="matrix(1,0,0,1,651.789,427.907)">
            <path d="M0,-364.244C-6.203,-364.244 -11.232,-369.272 -11.232,-375.474C-11.232,-381.677 -6.203,-386.705 0,-386.705C6.203,-386.705 11.23,-381.677 11.23,-375.474C11.23,-369.272 6.203,-364.244 0,-364.244M-476.88,-94.974L-536.885,-94.974C-569.181,-94.974 -595.603,-68.552 -595.603,-36.256C-595.603,-3.962 -569.181,22.461 -536.885,22.461L-29.502,22.461C22.793,22.461 65.578,-20.325 65.578,-72.618L65.578,-72.62C65.578,-124.913 22.793,-167.699 -29.502,-167.7C-51.613,-167.701 -69.703,-185.792 -69.703,-207.903C-69.703,-230.015 -51.613,-248.104 -29.502,-248.104L18.883,-248.104C41.871,-248.104 60.678,-266.913 60.678,-289.902C60.678,-312.89 41.871,-331.699 18.883,-331.699L-42.301,-331.699C-51.25,-331.699 -58.572,-339.022 -58.572,-347.973C-58.572,-356.922 -51.25,-364.244 -42.301,-364.244L-31.516,-364.244C-25.338,-364.244 -20.285,-369.298 -20.285,-375.474C-20.285,-381.651 -25.34,-386.705 -31.516,-386.705L-102.287,-386.705C-117.191,-386.705 -118.852,-369.098 -156.5,-369.098L-243.799,-369.098C-251.859,-369.098 -258.453,-362.503 -258.453,-354.443C-258.453,-346.384 -251.859,-339.789 -243.799,-339.789L-229.727,-339.789C-218.049,-339.789 -208.492,-330.233 -208.492,-318.556L-208.492,-318.555C-208.492,-306.878 -218.049,-297.322 -229.727,-297.322L-272.082,-297.322C-329.274,-297.322 -337.353,-282.376 -347.37,-252.648C-357.387,-222.922 -409.409,-220.524 -409.409,-220.524L-480.542,-220.524C-498.141,-220.524 -512.541,-206.126 -512.541,-188.527C-512.541,-170.928 -498.141,-156.528 -480.542,-156.528L-476.88,-156.528C-459.953,-156.528 -446.103,-142.68 -446.103,-125.752C-446.103,-108.823 -459.953,-94.974 -476.88,-94.974" style="fill:rgb(225,232,246);"/>
        </g>
        <g transform="matrix(0.745998,0.665948,0.665948,-0.745998,542.835,188.781)">
            <path d="M54.329,-14.792C52.993,-4.165 52.733,15.263 61.187,42.378C74.559,85.267 75.961,127.539 54.329,132.502C33.102,137.372 13.854,74.185 36.016,-21.024C43.558,-19.124 49.572,-17.017 54.329,-14.792" style="fill:rgb(180,197,230);"/>
        </g>
        <g transform="matrix(1,0,0,1,565.986,131.553)">
            <path d="M0,96.602C1.066,96.549 3.893,96.55 7.602,97.642C7.859,97.719 8.133,97.572 8.209,97.312C8.285,97.054 8.137,96.782 7.879,96.705C4.633,95.748 2.004,95.6 0.582,95.611C1.414,94.198 2.248,92.803 3.08,91.431C4.781,91.393 10.268,91.284 12.328,91.397C12.598,91.413 12.83,91.205 12.844,90.935C12.859,90.665 12.652,90.434 12.383,90.418C10.49,90.315 5.838,90.392 3.682,90.436C5.244,87.875 6.809,85.389 8.371,82.968C10.018,82.997 15.123,83.148 20.77,83.907C21.037,83.942 21.285,83.755 21.32,83.487C21.357,83.219 21.17,82.972 20.902,82.935C15.781,82.248 11.094,82.055 8.99,82.001C10.568,79.568 12.148,77.209 13.723,74.915C15.98,74.955 23.32,75.161 31.43,76.251C31.699,76.288 31.945,76.099 31.98,75.831C32.018,75.564 31.83,75.317 31.562,75.28C24.057,74.27 17.219,74.013 14.391,73.949C16.465,70.949 18.531,68.071 20.588,65.303C22.947,65.203 32.73,64.951 40.076,67.308C40.334,67.392 40.611,67.25 40.693,66.993C40.777,66.735 40.637,66.458 40.379,66.375C33.533,64.18 24.652,64.2 21.33,64.299C23.861,60.92 26.375,57.719 28.863,54.678C32.082,54.86 45.033,55.842 51.094,60.132C51.314,60.288 51.619,60.235 51.775,60.012C51.93,59.791 51.877,59.487 51.656,59.331C45.777,55.169 33.807,54.024 29.637,53.745C32.283,50.541 34.898,47.522 37.477,44.68C39.826,45.212 49.654,47.601 58.895,52.242C59.137,52.364 59.43,52.266 59.553,52.026C59.674,51.785 59.576,51.491 59.336,51.37C50.582,46.972 41.316,44.577 38.229,43.849C39.758,42.18 41.271,40.572 42.771,39.023C45.021,39.484 54.596,41.672 67.268,47.805C67.512,47.923 67.805,47.821 67.922,47.579C68.041,47.334 67.938,47.042 67.695,46.924C55.871,41.202 46.691,38.881 43.582,38.197C47.145,34.556 50.617,31.244 53.973,28.245C56.816,29.185 71.219,34.061 78.793,38.877C79.02,39.022 79.322,38.956 79.467,38.727C79.613,38.499 79.545,38.197 79.318,38.053C72.043,33.426 58.641,28.775 54.822,27.497C56.781,25.767 58.701,24.139 60.574,22.613C63.01,23.439 74.174,27.366 84.357,33.27C84.59,33.405 84.891,33.327 85.025,33.093C85.16,32.859 85.082,32.56 84.848,32.423C75.252,26.862 64.803,23.042 61.473,21.886C65.859,18.359 69.988,15.373 73.797,12.856C76.205,13.423 87.082,16.147 95.248,20.883C95.48,21.02 95.779,20.94 95.916,20.706C96.051,20.473 95.973,20.174 95.74,20.038C88.23,15.684 78.496,13.012 74.922,12.122C76.498,11.102 78.012,10.164 79.467,9.3C81.412,9.498 88.643,10.431 97.99,14.016C98.244,14.113 98.527,13.988 98.625,13.736C98.723,13.484 98.596,13.2 98.344,13.102C90.363,10.041 83.881,8.889 80.861,8.483C92.588,1.711 99.873,-0.01 99.934,-0.026C100.326,-0.125 100.564,-0.524 100.465,-0.917C100.367,-1.31 99.969,-1.548 99.574,-1.45C99.533,-1.44 96.33,-0.682 90.768,1.779C92.291,-0.142 94.451,-2.795 95.023,-3.146C95.254,-3.287 95.326,-3.587 95.186,-3.818C95.045,-4.047 94.744,-4.121 94.514,-3.98C93.629,-3.439 90.051,1.096 88.824,2.666C86.568,3.725 84.004,5.031 81.16,6.639L85.994,-2.969C86.115,-3.21 86.018,-3.504 85.777,-3.626C85.537,-3.747 85.242,-3.65 85.121,-3.41L79.619,7.524C77.67,8.664 75.602,9.941 73.434,11.365L78.645,-0.025C78.758,-0.27 78.65,-0.56 78.406,-0.673C78.16,-0.787 77.869,-0.678 77.756,-0.434L71.887,12.394C68.637,14.584 65.172,17.095 61.523,19.99L66.041,8.187C66.137,7.934 66.012,7.651 65.758,7.553C65.506,7.456 65.225,7.581 65.125,7.834L60.008,21.209C58.344,22.56 56.646,23.981 54.914,25.49L58.742,14.854C58.836,14.599 58.703,14.319 58.451,14.226C58.195,14.134 57.914,14.265 57.822,14.52L53.389,26.829C50.182,29.68 46.867,32.811 43.473,36.241L46.357,25.855C46.43,25.595 46.275,25.325 46.016,25.252C45.756,25.18 45.486,25.332 45.414,25.592L42.057,37.679C40.711,39.063 39.35,40.499 37.982,41.979L39.6,34.048C39.652,33.784 39.482,33.526 39.217,33.471C38.953,33.417 38.695,33.588 38.641,33.852L36.701,43.373C34.154,46.167 31.572,49.134 28.963,52.275L30.469,43.434C30.516,43.168 30.336,42.915 30.07,42.871C29.803,42.826 29.551,43.004 29.506,43.271L27.713,53.781C25.428,56.571 23.123,59.506 20.801,62.579L21.783,54.726C21.818,54.456 21.629,54.211 21.359,54.177C21.09,54.144 20.846,54.334 20.811,54.602L19.617,64.159C17.592,66.876 15.559,69.704 13.516,72.644L13.564,65.556C13.566,65.286 13.35,65.065 13.08,65.062C12.811,65.059 12.588,65.277 12.586,65.546L12.525,74.072C11.049,76.22 9.57,78.433 8.088,80.704L7.328,74.662C7.293,74.394 7.049,74.204 6.781,74.238C6.514,74.271 6.324,74.515 6.357,74.784L7.262,81.979C5.9,84.088 4.535,86.248 3.17,88.461L2.459,84.557C2.41,84.29 2.154,84.114 1.889,84.163C1.623,84.211 1.447,84.466 1.496,84.733L2.4,89.713C1.385,91.38 0.367,93.081 -0.65,94.807L-2.27,91.603C-2.391,91.362 -2.686,91.266 -2.926,91.388C-3.166,91.509 -3.264,91.803 -3.143,92.044L-1.238,95.81C-2.068,97.226 -2.896,98.661 -3.725,100.118C-3.271,100.325 -2.822,100.528 -2.379,100.723C-1.586,99.331 -0.793,97.958 0,96.602" style="fill:white;"/>
        </g>
        <g transform="matrix(1,0,0,1,566.527,181.005)">
            <path d="M0,59.983C6.512,55.867 18,50.349 35.354,47.876C64.803,43.678 91.086,31.605 89.096,15.508C87.18,0 45.436,5.972 -6.518,48.05L-0.027,59.937L0,59.983Z" style="fill:rgb(159,178,217);"/>
        </g>
        <g transform="matrix(1,0,0,1,647.676,229.801)">
            <path d="M0,-30.887C0.557,-30.89 1.008,-31.346 1.004,-31.903C1,-32.461 0.543,-32.91 -0.014,-32.907C-0.051,-32.906 -3.33,-32.916 -8.938,-32.158L-4.133,-35.401C-3.824,-35.609 -3.744,-36.027 -3.951,-36.334C-4.158,-36.642 -4.578,-36.723 -4.885,-36.515L-12.023,-31.695C-14.635,-31.266 -17.607,-30.689 -20.885,-29.904L-15.838,-34.723C-15.568,-34.981 -15.559,-35.407 -15.816,-35.676C-16.072,-35.946 -16.498,-35.955 -16.768,-35.699L-23.531,-29.24C-26.936,-28.351 -30.619,-27.249 -34.525,-25.877L-30.301,-30.223C-30.043,-30.49 -30.047,-30.914 -30.314,-31.174C-30.58,-31.433 -31.006,-31.428 -31.264,-31.162L-37.432,-24.817C-41.516,-23.283 -45.813,-21.461 -50.26,-19.291L-46.689,-23.879C-46.461,-24.17 -46.512,-24.594 -46.805,-24.822C-47.098,-25.049 -47.52,-24.998 -47.748,-24.705L-53.053,-17.887C-57.221,-15.742 -61.504,-13.296 -65.855,-10.498L-64.391,-13.617C-64.232,-13.954 -64.379,-14.355 -64.715,-14.513C-65.051,-14.67 -65.451,-14.526 -65.609,-14.189L-68.002,-9.092C-71.303,-6.895 -74.633,-4.498 -77.977,-1.875L-76.637,-5.049C-76.492,-5.393 -76.652,-5.787 -76.994,-5.932C-77.336,-6.076 -77.732,-5.915 -77.877,-5.574L-80.182,-0.115C-81.809,1.209 -83.438,2.585 -85.066,4.016L-84.074,5.836C-82.445,4.395 -80.816,3.013 -79.191,1.684C-77.525,1.791 -73.537,2.131 -71.859,3.01C-71.531,3.184 -71.125,3.058 -70.949,2.731C-70.775,2.402 -70.902,1.994 -71.23,1.82C-72.713,1.043 -75.629,0.647 -77.664,0.458C-76.377,-0.567 -75.092,-1.561 -73.809,-2.52C-72.174,-2.247 -68.16,-1.46 -65.486,0.054C-65.162,0.237 -64.752,0.123 -64.568,-0.2C-64.387,-0.524 -64.5,-0.935 -64.824,-1.117C-67.117,-2.417 -70.291,-3.207 -72.334,-3.616C-69.684,-5.551 -67.049,-7.346 -64.439,-9.016C-62.197,-8.09 -55.102,-5.072 -52.316,-2.783C-52.031,-2.547 -51.607,-2.588 -51.371,-2.875C-51.135,-3.16 -51.176,-3.585 -51.461,-3.822C-54.074,-5.97 -60.16,-8.671 -63.051,-9.893C-60.252,-11.64 -57.484,-13.245 -54.764,-14.714C-52.523,-13.854 -45.234,-10.897 -40.428,-7.092C-40.137,-6.862 -39.713,-6.911 -39.482,-7.203C-39.252,-7.494 -39.303,-7.918 -39.594,-8.149C-43.924,-11.575 -50.18,-14.323 -53.209,-15.544C-51.861,-16.253 -50.525,-16.927 -49.203,-17.571C-46.879,-16.833 -39.02,-14.103 -31.738,-8.828C-31.437,-8.611 -31.018,-8.676 -30.799,-8.977C-30.58,-9.276 -30.645,-9.698 -30.945,-9.916C-37.318,-14.534 -44.135,-17.246 -47.459,-18.406C-42.66,-20.662 -38.059,-22.513 -33.734,-24.028C-31.164,-22.436 -21.205,-16.176 -16.85,-12.036C-16.582,-11.781 -16.154,-11.791 -15.898,-12.061C-15.643,-12.329 -15.654,-12.755 -15.924,-13.012C-19.955,-16.843 -28.568,-22.383 -32.09,-24.592C-28.854,-25.682 -25.783,-26.58 -22.92,-27.325C-20.609,-25.559 -12.074,-19.027 -10.096,-17.32C-9.816,-17.076 -9.391,-17.106 -9.148,-17.386C-8.904,-17.666 -8.936,-18.091 -9.215,-18.334C-11.029,-19.899 -18.174,-25.387 -21.256,-27.746C-17.508,-28.669 -14.145,-29.323 -11.26,-29.783C-9.184,-27.979 -4.189,-23.622 -3.021,-22.454C-2.76,-22.192 -2.332,-22.192 -2.07,-22.454C-1.807,-22.718 -1.807,-23.144 -2.07,-23.408C-3.111,-24.446 -7.141,-27.977 -9.514,-30.045C-3.551,-30.897 -0.039,-30.887 0,-30.887" style="fill:rgb(180,197,230);"/>
        </g>
        <g transform="matrix(1,0,0,1,549.254,270.925)">
            <path d="M0,-167.314C0.004,-167.257 0.004,-167.201 -0.002,-167.143C-0.004,-167.121 -0.687,-159.878 0.166,-152.696C14.354,-160.789 25.008,-165.409 29.293,-167.156C24.641,-167.516 19.961,-167.72 15.27,-167.762C10.201,-167.807 5.104,-167.661 0,-167.314M-30.639,-162.599C-30.615,-162.507 -30.604,-162.411 -30.605,-162.312C-30.607,-162.269 -30.984,-148.069 -27.814,-134.788C-18.48,-141.441 -9.688,-146.986 -1.877,-151.518C-2.842,-158.557 -2.291,-165.891 -2.186,-167.153C-11.822,-166.385 -21.367,-164.889 -30.639,-162.599M-65.541,-149.214C-65.48,-149.107 -65.438,-148.987 -65.418,-148.858C-65.404,-148.78 -61.084,-122.546 -56.59,-111.783C-47.43,-119.982 -38.359,-127.171 -29.721,-133.418C-32.9,-146.094 -32.824,-159.836 -32.791,-162.051C-37.697,-160.769 -42.521,-159.26 -47.236,-157.517C-53.559,-155.178 -59.682,-152.418 -65.541,-149.214M-91.256,-130.427C-91.066,-130.236 -90.945,-129.973 -90.941,-129.682C-90.939,-129.628 -90.738,-111.669 -80.016,-88.539C-72.848,-96.433 -65.553,-103.656 -58.299,-110.241C-62.689,-120.129 -66.932,-144.753 -67.5,-148.121C-73.535,-144.681 -79.277,-140.759 -84.648,-136.325C-86.918,-134.45 -89.123,-132.486 -91.256,-130.427M-107.469,-110.763C-107.174,-110.579 -106.973,-110.255 -106.957,-109.881C-106.375,-94.696 -99.83,-73.671 -97.709,-67.21C-92.471,-74.141 -87.074,-80.661 -81.598,-86.784C-91.387,-107.525 -92.861,-124.421 -93.082,-128.626C-98.377,-123.282 -103.203,-117.337 -107.469,-110.763M-119.594,-86.183C-119.193,-86.045 -118.895,-85.681 -118.861,-85.232C-117.686,-68.084 -113.682,-52.234 -112.082,-46.425C-107.969,-52.947 -103.693,-59.164 -99.299,-65.085C-100.582,-68.875 -108.02,-91.458 -109.059,-108.241C-110.91,-105.218 -112.646,-102.067 -114.258,-98.788C-116.225,-94.782 -118.008,-90.584 -119.594,-86.183M-126.684,-56.75C-126.193,-56.688 -125.793,-56.299 -125.734,-55.789C-125.73,-55.739 -123.998,-40.015 -121.236,-30.873C-118.781,-35.352 -116.242,-39.705 -113.635,-43.931C-114.514,-46.926 -119.244,-63.697 -120.84,-82.561C-123.447,-74.596 -125.424,-66.001 -126.684,-56.75M-127.832,-18.109C-126.156,-21.555 -124.432,-24.933 -122.662,-28.241C-124.889,-34.423 -126.543,-45.132 -127.35,-51.138C-127.424,-50.402 -127.496,-49.664 -127.563,-48.92C-128.021,-43.772 -128.268,-38.427 -128.289,-32.885C-128.307,-28.128 -128.158,-23.205 -127.832,-18.109M-77.064,-13.577C-93.594,-16.157 -116.209,-24.898 -120.967,-26.783C-122.885,-23.182 -124.75,-19.5 -126.557,-15.734C-107.996,-11.574 -91.578,-11.159 -77.064,-13.577M-49.215,-22.531C-57.041,-24.59 -98.818,-35.732 -112.057,-42.339C-114.762,-37.935 -117.391,-33.392 -119.932,-28.71C-114.355,-26.509 -89.373,-16.922 -73.236,-15.273C-72.775,-15.227 -72.412,-14.903 -72.293,-14.485C-63.963,-16.279 -56.285,-19.023 -49.215,-22.531M-23.904,-40.296C-30.418,-42.324 -87.967,-60.247 -97.693,-63.596C-102.242,-57.453 -106.662,-50.991 -110.904,-44.198C-96.379,-37.024 -47.545,-24.348 -47.398,-24.311C-47.107,-24.235 -46.873,-24.048 -46.732,-23.807C-38.258,-28.314 -30.678,-33.923 -23.904,-40.296M-5.713,-61.625L-79.98,-85.333C-85.541,-79.115 -91.016,-72.486 -96.324,-65.429C-84.322,-61.371 -22.834,-42.241 -22.65,-42.182C-22.479,-42.129 -22.33,-42.038 -22.211,-41.92C-16.049,-47.952 -10.576,-54.613 -5.713,-61.625M8.895,-87.09C0.898,-91.185 -50.871,-106.962 -56.725,-108.742C-63.955,-102.181 -71.229,-94.982 -78.379,-87.111L-4.703,-63.592C-4.613,-63.563 -4.527,-63.523 -4.449,-63.473C-1.279,-68.183 1.621,-73.036 4.273,-77.954C5.906,-80.981 7.445,-84.034 8.895,-87.09M21.164,-118.763L-28.301,-131.773C-36.83,-125.611 -45.787,-118.523 -54.838,-110.441C-45.027,-107.451 1.871,-93.075 9.816,-89.058C14.494,-99.182 18.219,-109.314 21.164,-118.763M27.729,-143.793L27.703,-143.8C20.639,-146.106 2.215,-149.319 -0.531,-149.793C-8.195,-145.355 -16.828,-139.927 -26,-133.418L21.803,-120.846C24.352,-129.255 26.283,-137.072 27.729,-143.793M31.498,-165.693C28.824,-164.65 17.846,-160.185 2.436,-151.489C8.443,-150.418 22.066,-147.889 28.182,-145.935C30.209,-155.719 31.162,-162.881 31.498,-165.693M-130.043,-15.796C-130.471,-21.664 -130.668,-27.359 -130.646,-32.885C-130.625,-38.498 -130.377,-43.91 -129.912,-49.124C-128.174,-68.626 -123.436,-85.451 -116.375,-99.823C-108.734,-115.376 -98.375,-128.054 -86.146,-138.146C-74.816,-147.498 -61.893,-154.617 -48.051,-159.736C-33.201,-165.227 -17.291,-168.42 -1.152,-169.602C4.293,-170.002 9.785,-170.169 15.289,-170.121C20.859,-170.071 26.42,-169.793 31.937,-169.302L31.937,-169.306C32.563,-169.251 33.107,-168.948 33.484,-168.499C33.857,-168.053 34.063,-167.466 34.008,-166.842L33.986,-166.684C33.762,-164.535 28.801,-118.462 6.354,-76.835C-16.352,-34.726 -56.871,2.855 -128.285,-13.697C-128.795,-13.815 -129.225,-14.098 -129.533,-14.475C-129.834,-14.842 -130.016,-15.304 -130.041,-15.796L-130.043,-15.796Z" style="fill:rgb(159,178,217);"/>
        </g>
        <g transform="matrix(1,0,0,1,246.802,183.316)">
            <path d="M0,209.673C0,209.673 -21.674,198.494 -17.701,171.049C-13.728,143.603 -30.512,134.924 -34.77,126.759C-39.029,118.595 -29.482,105.427 -30.567,93.898C-31.652,82.367 -44.95,79.283 -38.719,63.468C-32.488,47.654 -37.758,41.648 -45.962,24.706C-54.166,7.765 -42.01,-18.125 -36.233,-17.981C-30.456,-17.839 -37.5,-11.783 -32.421,-0.521C-27.343,10.738 -5.924,14.168 0.779,23.584C7.48,33 -4.299,45.476 3.348,58.187C10.995,70.897 33.783,66.954 39.809,79.289C45.834,91.624 31.468,106.405 35.646,119.337C39.825,132.269 55.214,139.597 61.69,149.986C68.167,160.374 80.298,180.276 60.433,204.037C40.568,227.798 0,209.673 0,209.673" style="fill:rgb(159,178,217);"/>
        </g>
        <g transform="matrix(1,0,0,1,208.192,418.626)">
            <path d="M0,-229.793C-0.279,-230.52 0.082,-231.335 0.809,-231.614C1.536,-231.895 2.351,-231.533 2.631,-230.807L92.288,2.102L88.914,1.184L0,-229.793Z" style="fill:rgb(180,197,230);"/>
        </g>
        <g transform="matrix(1,0,0,1,228.834,220.111)">
            <path d="M0,145.042C-0.114,143.959 -0.185,142.842 -0.208,141.689L58.681,174.784L53.471,161.25C53.445,161.193 53.422,161.135 53.404,161.077L50.733,154.137L0.869,126.114C0.865,124.975 0.823,123.871 0.745,122.809L49.143,150.008L44.431,137.766L-1.635,111.878C-2.228,110.321 -2.9,108.874 -3.627,107.521L42.841,133.635L40.501,127.558C40.474,127.496 40.449,127.436 40.43,127.372L30.197,100.788L-15.914,74.875C-15.642,73.962 -15.359,73.039 -15.079,72.108L28.608,96.659L23.499,83.388L-12.83,62.973C-12.676,61.945 -12.571,60.92 -12.531,59.904L21.909,79.258L18.066,69.275C18.045,69.229 18.027,69.181 18.011,69.134L6.846,40.128L-20.114,24.978C-19.775,24.031 -19.481,23.12 -19.229,22.238L5.256,35.999L-4.492,10.674C-4.514,10.626 -4.533,10.577 -4.549,10.526L-20.642,-31.278C-20.921,-32.005 -20.56,-32.82 -19.833,-33.1C-19.106,-33.38 -18.291,-33.019 -18.011,-32.292L-3.388,5.695L4.969,-22.853C5.833,-22.418 6.688,-21.983 7.53,-21.544L-1.717,10.037L9.271,38.581C9.288,38.618 9.302,38.657 9.314,38.695L19.477,65.092L35.521,30.694C36.424,30.984 37.335,31.26 38.248,31.528L20.886,68.754L24.758,78.814L45.898,33.848C46.808,34.158 47.695,34.488 48.553,34.844L26.468,81.82L26.804,82.009C27.484,82.39 27.727,83.249 27.346,83.929C27.236,84.126 27.085,84.287 26.911,84.405L32.619,99.233C32.637,99.277 32.654,99.318 32.668,99.362L41.909,123.365L57.568,90.059C58.185,90.9 58.841,91.721 59.531,92.523L43.314,127.019L45.691,133.191L63.056,96.254C63.764,96.946 64.486,97.629 65.216,98.305L47.097,136.844L53.158,152.586C53.175,152.627 53.189,152.666 53.204,152.708L54.881,157.065L77.127,109.747C77.822,110.573 78.471,111.415 79.061,112.275L56.287,160.719L62.696,177.364C62.712,177.402 62.727,177.441 62.74,177.482L62.76,177.531C61.65,177.878 60.526,178.175 59.396,178.422L0,145.042Z" style="fill:rgb(180,197,230);"/>
        </g>
        <g transform="matrix(1,0,0,1,236.722,309.305)">
            <path d="M0,141.225C-5.963,136.584 -12.092,134.482 -15.336,131.48C-21.795,125.503 -17.442,110.587 -22.128,100.563C-26.816,90.538 -39.771,92.043 -39.254,75.81C-38.738,59.577 -45.414,55.87 -58.246,43.267C-71.078,30.665 -68.472,3.462 -63.229,1.731C-57.986,0 -62.374,7.716 -54.181,16.214C-45.988,24.709 -25.615,20.903 -16.554,27.217C-7.494,33.531 -14.079,48.546 -3.108,57.521C7.863,66.496 27.095,55.616 36.485,64.774C45.875,73.932 37.708,91.853 45.628,102.143C53.548,112.433 69.752,114.075 78.922,121.335C84.078,125.418 91.809,131.632 95.772,141.225L0,141.225Z" style="fill:rgb(192,205,234);"/>
        </g>
        <g transform="matrix(1,0,0,1,310.123,330.556)">
            <path d="M0,119.974L2.134,97.802C3.027,98.322 3.881,98.87 4.688,99.455L2.713,119.974L0,119.974ZM-17.734,119.974L-14.867,90.19C-14.006,90.585 -13.137,90.967 -12.263,91.34L-15.02,119.974L-17.734,119.974ZM-25.032,119.974L-21.797,86.383C-20.972,86.942 -20.116,87.469 -19.238,87.968L-22.319,119.974L-25.032,119.974ZM-29.94,119.974L-42.97,104.844L-92.793,96.368C-92.842,95.459 -92.885,94.538 -92.933,93.611L-45.729,101.639L-54.596,91.345L-93.849,84.667C-94.041,83.693 -94.277,82.737 -94.568,81.811L-57.354,88.142L-64.024,80.397C-64.058,80.361 -64.09,80.324 -64.12,80.285L-83.499,57.785L-112.629,52.828C-112.629,51.868 -112.658,50.953 -112.714,50.079L-86.257,54.578L-103.177,34.933C-103.213,34.896 -103.245,34.858 -103.276,34.818L-131.207,2.386C-131.692,1.823 -131.629,0.972 -131.066,0.487C-130.502,0 -129.651,0.064 -129.167,0.628L-103.786,30.098L-105.454,1.725C-104.537,1.837 -103.627,1.953 -102.729,2.078L-100.885,33.467L-81.814,55.611C-81.788,55.639 -81.762,55.669 -81.738,55.7L-64.101,76.179L-60.736,40.069C-59.831,40.039 -58.922,39.994 -58.014,39.942L-61.656,79.02L-54.934,86.823L-50.385,39.567C-49.467,39.555 -48.563,39.565 -47.676,39.608L-52.429,88.978L-52.065,89.041C-51.332,89.163 -50.837,89.858 -50.96,90.593C-50.996,90.806 -51.08,90.998 -51.198,91.162L-41.291,102.665C-41.261,102.698 -41.232,102.731 -41.206,102.766L-26.385,119.974L-29.94,119.974Z" style="fill:rgb(225,232,246);"/>
        </g>
        <g transform="matrix(1,0,0,1,55.5181,450.53)">
            <path d="M0,8.268L-5.445,8.268C-7.72,8.268 -9.579,6.408 -9.579,4.135C-9.579,1.861 -7.72,0 -5.445,0L0,0C2.274,0 4.134,1.861 4.134,4.135C4.134,6.408 2.274,8.268 0,8.268" style="fill:rgb(0,0,15);"/>
        </g>
        <g transform="matrix(1,0,0,1,68.7935,450.53)">
            <path d="M0,8.268L599.261,8.268C601.537,8.268 603.396,6.408 603.396,4.135C603.396,1.861 601.537,0 599.261,0L0,0C-2.274,0 -4.133,1.861 -4.133,4.135C-4.133,6.408 -2.274,8.268 0,8.268" style="fill:rgb(0,0,15);"/>
        </g>
        <g transform="matrix(1,0,0,1,114.231,309.18)">
            <path d="M0,-22.605C-0.922,-22.339 -1.797,-21.964 -2.608,-21.495C-3.441,-21.013 -4.209,-20.432 -4.897,-19.77C-5.031,-19.641 -5.23,-19.622 -5.384,-19.71L-8.477,-21.497L-8.494,-21.507C-8.67,-21.602 -8.873,-21.621 -9.058,-21.571C-9.248,-21.519 -9.419,-21.398 -9.523,-21.216L-9.537,-21.194L-11.712,-17.426C-11.817,-17.244 -11.838,-17.034 -11.787,-16.844C-11.736,-16.654 -11.613,-16.483 -11.431,-16.378L-11.41,-16.365L-8.342,-14.593C-8.182,-14.501 -8.108,-14.316 -8.15,-14.143L-8.149,-14.143C-8.262,-13.687 -8.349,-13.216 -8.408,-12.736C-8.464,-12.268 -8.494,-11.791 -8.494,-11.302C-8.494,-10.816 -8.464,-10.337 -8.408,-9.87C-8.349,-9.389 -8.262,-8.918 -8.149,-8.464C-8.103,-8.274 -8.197,-8.083 -8.364,-8L-11.431,-6.23L-11.431,-6.229C-11.613,-6.124 -11.736,-5.953 -11.787,-5.763C-11.838,-5.572 -11.817,-5.362 -11.712,-5.181L-9.523,-1.391C-9.419,-1.208 -9.248,-1.086 -9.058,-1.035C-8.868,-0.984 -8.658,-1.005 -8.477,-1.111L-8.454,-1.122L-5.382,-2.895C-5.222,-2.988 -5.025,-2.959 -4.897,-2.836C-4.209,-2.173 -3.441,-1.593 -2.608,-1.112C-1.792,-0.64 -0.912,-0.262 0.017,0.003C0.197,0.056 0.314,0.219 0.314,0.399L0.314,3.965C0.314,4.174 0.4,4.368 0.54,4.506C0.678,4.644 0.87,4.73 1.08,4.73L5.457,4.73C5.667,4.73 5.859,4.644 5.998,4.506C6.136,4.368 6.223,4.174 6.223,3.965L6.223,0.397C6.223,0.204 6.357,0.042 6.537,-0.001C7.459,-0.267 8.333,-0.642 9.145,-1.112C9.979,-1.593 10.747,-2.173 11.434,-2.836C11.574,-2.97 11.786,-2.985 11.941,-2.882L15.013,-1.109C15.195,-1.005 15.404,-0.984 15.595,-1.035C15.785,-1.086 15.955,-1.208 16.06,-1.391L16.074,-1.413L18.25,-5.181L18.249,-5.181C18.354,-5.365 18.375,-5.572 18.324,-5.763C18.273,-5.953 18.15,-6.124 17.97,-6.229L14.879,-8.012C14.719,-8.104 14.645,-8.291 14.687,-8.462C14.799,-8.918 14.886,-9.389 14.944,-9.87C15.001,-10.337 15.031,-10.816 15.031,-11.302C15.031,-11.791 15.001,-12.269 14.944,-12.738C14.886,-13.217 14.8,-13.687 14.687,-14.143C14.64,-14.333 14.734,-14.523 14.902,-14.606L17.97,-16.378C18.15,-16.483 18.273,-16.654 18.324,-16.844C18.375,-17.034 18.354,-17.244 18.249,-17.424L18.238,-17.446L16.062,-21.216L16.061,-21.216C15.955,-21.398 15.785,-21.519 15.595,-21.571C15.404,-21.622 15.195,-21.602 15.014,-21.498L15.014,-21.497L11.921,-19.71C11.757,-19.616 11.552,-19.647 11.425,-19.779C10.739,-20.438 9.974,-21.016 9.145,-21.495C8.329,-21.968 7.448,-22.343 6.52,-22.61C6.34,-22.663 6.223,-22.826 6.223,-23.004L6.223,-26.571C6.223,-26.782 6.136,-26.973 5.998,-27.112C5.859,-27.251 5.667,-27.335 5.457,-27.335L1.08,-27.335C0.87,-27.335 0.678,-27.251 0.54,-27.112C0.4,-26.973 0.314,-26.782 0.314,-26.571L0.314,-23.004C0.314,-22.81 0.181,-22.648 0,-22.605M-1.437,-16.009C-0.233,-17.213 1.431,-17.958 3.269,-17.958C5.106,-17.958 6.771,-17.213 7.975,-16.009C9.179,-14.806 9.924,-13.141 9.924,-11.302C9.924,-9.464 9.179,-7.801 7.975,-6.598C6.771,-5.394 5.106,-4.648 3.269,-4.648C1.431,-4.648 -0.233,-5.394 -1.437,-6.598C-2.642,-7.801 -3.387,-9.464 -3.387,-11.302C-3.387,-13.141 -2.642,-14.806 -1.437,-16.009M-4.897,-2.836L-4.896,-2.836L-4.896,-2.837L-4.897,-2.837L-4.897,-2.836Z" style="fill:rgb(192,205,234);"/>
        </g>
        <g transform="matrix(1,0,0,1,66.5811,264.43)">
            <path d="M0,-49.987C-1.01,-49.557 -1.99,-49.066 -2.933,-48.52C-3.894,-47.966 -4.817,-47.353 -5.696,-46.691C-6.576,-46.028 -7.418,-45.308 -8.215,-44.54C-8.245,-44.51 -8.283,-44.493 -8.325,-44.489C-8.366,-44.484 -8.41,-44.492 -8.444,-44.512C-10.78,-45.86 -13.119,-47.203 -15.45,-48.557C-15.729,-48.709 -16.026,-48.8 -16.327,-48.834C-16.638,-48.869 -16.951,-48.844 -17.249,-48.765C-17.555,-48.682 -17.849,-48.54 -18.106,-48.343C-18.354,-48.154 -18.571,-47.914 -18.735,-47.628C-20.427,-44.887 -22.034,-41.917 -23.653,-39.114C-23.817,-38.829 -23.918,-38.52 -23.958,-38.208C-23.999,-37.883 -23.976,-37.559 -23.894,-37.255C-23.812,-36.948 -23.669,-36.655 -23.472,-36.397C-23.282,-36.149 -23.042,-35.933 -22.756,-35.768C-20.523,-34.389 -18.1,-33.08 -15.815,-31.76C-15.779,-31.74 -15.752,-31.708 -15.736,-31.671C-15.72,-31.632 -15.715,-31.588 -15.725,-31.549L-15.885,-30.9L-15.876,-30.897C-15.946,-30.583 -16.01,-30.262 -16.07,-29.937C-16.172,-29.383 -16.255,-28.836 -16.321,-28.3C-16.385,-27.768 -16.435,-27.22 -16.469,-26.655C-16.503,-26.089 -16.521,-25.534 -16.521,-24.994C-16.521,-24.453 -16.503,-23.899 -16.469,-23.334C-16.435,-22.768 -16.385,-22.218 -16.321,-21.686C-16.255,-21.151 -16.171,-20.605 -16.07,-20.05C-15.968,-19.498 -15.852,-18.961 -15.724,-18.439C-15.713,-18.396 -15.718,-18.352 -15.737,-18.313C-15.756,-18.271 -15.786,-18.238 -15.822,-18.22C-18.373,-16.857 -20.963,-15.255 -23.485,-13.798L-23.395,-13.685L-23.472,-13.59C-23.669,-13.331 -23.812,-13.039 -23.894,-12.731C-23.976,-12.426 -23.999,-12.101 -23.958,-11.779C-23.918,-11.466 -23.817,-11.158 -23.652,-10.874L-18.367,-1.721L-18.27,-1.779C-18.217,-1.731 -18.163,-1.685 -18.106,-1.643C-17.849,-1.447 -17.555,-1.303 -17.249,-1.221C-16.944,-1.14 -16.62,-1.117 -16.298,-1.159C-15.994,-1.197 -15.694,-1.293 -15.417,-1.449C-13.104,-2.675 -10.725,-4.158 -8.442,-5.475C-8.408,-5.494 -8.367,-5.5 -8.326,-5.497C-8.283,-5.491 -8.242,-5.472 -8.211,-5.443C-7.416,-4.675 -6.574,-3.957 -5.694,-3.294C-4.817,-2.633 -3.894,-2.021 -2.934,-1.466C-1.985,-0.917 -0.998,-0.424 0.02,0.008C1.03,0.438 2.07,0.808 3.13,1.112C3.173,1.124 3.208,1.149 3.232,1.18C3.258,1.215 3.273,1.256 3.271,1.298L3.271,9.313C3.271,9.64 3.337,9.956 3.458,10.245C3.583,10.547 3.766,10.816 3.993,11.039C4.217,11.266 4.487,11.448 4.784,11.571C5.074,11.693 5.389,11.758 5.717,11.758L15.553,11.758C15.88,11.758 16.196,11.693 16.485,11.571C16.783,11.448 17.052,11.265 17.28,11.039C17.503,10.816 17.686,10.547 17.811,10.245C17.931,9.956 17.998,9.64 17.998,9.313L17.998,1.296C17.998,1.249 18.013,1.207 18.037,1.176C18.062,1.144 18.101,1.119 18.146,1.111L18.177,1.098C19.245,0.79 20.276,0.423 21.268,0.001C22.278,-0.43 23.258,-0.921 24.203,-1.466C25.164,-2.021 26.086,-2.633 26.964,-3.295C27.845,-3.958 28.687,-4.678 29.484,-5.446C29.517,-5.479 29.558,-5.497 29.598,-5.5C29.64,-5.504 29.685,-5.494 29.722,-5.468L36.664,-1.462C36.949,-1.298 37.256,-1.197 37.565,-1.159C37.888,-1.116 38.212,-1.14 38.518,-1.221C38.825,-1.303 39.117,-1.446 39.375,-1.643C39.618,-1.828 39.829,-2.062 39.993,-2.339C41.816,-5.27 43.539,-8.483 45.279,-11.494L45.186,-11.549C45.203,-11.627 45.216,-11.704 45.226,-11.781C45.267,-12.103 45.245,-12.427 45.164,-12.732C45.081,-13.04 44.938,-13.332 44.74,-13.59C44.551,-13.839 44.312,-14.054 44.027,-14.218L37.084,-18.226C37.049,-18.247 37.021,-18.279 37.005,-18.317C36.988,-18.355 36.984,-18.399 36.995,-18.441L37.175,-19.175L37.165,-19.177C37.227,-19.463 37.285,-19.755 37.339,-20.048C37.44,-20.602 37.525,-21.15 37.59,-21.686C37.655,-22.218 37.705,-22.768 37.739,-23.334C37.773,-23.899 37.791,-24.453 37.791,-24.994C37.791,-25.534 37.773,-26.088 37.739,-26.653C37.705,-27.218 37.655,-27.768 37.59,-28.304C37.526,-28.835 37.442,-29.381 37.339,-29.941C37.237,-30.492 37.122,-31.028 36.993,-31.547C36.983,-31.59 36.988,-31.633 37.007,-31.675C37.025,-31.715 37.056,-31.748 37.095,-31.766L44.029,-35.77C44.315,-35.935 44.555,-36.15 44.742,-36.399C44.939,-36.658 45.082,-36.951 45.164,-37.255C45.245,-37.558 45.267,-37.883 45.226,-38.205C45.188,-38.509 45.09,-38.809 44.934,-39.09C43.281,-42.151 41.386,-45.237 39.638,-48.265L39.539,-48.207C39.486,-48.255 39.432,-48.3 39.375,-48.343C39.117,-48.54 38.825,-48.682 38.518,-48.765C38.213,-48.846 37.889,-48.869 37.567,-48.829C37.253,-48.789 36.946,-48.69 36.665,-48.528L36.151,-48.233L36.153,-48.228L29.714,-44.512C29.675,-44.489 29.631,-44.482 29.59,-44.488C29.549,-44.493 29.509,-44.512 29.48,-44.542L29.463,-44.559C28.675,-45.318 27.835,-46.033 26.949,-46.701C26.069,-47.363 25.151,-47.972 24.202,-48.52C23.253,-49.07 22.267,-49.562 21.25,-49.995C20.238,-50.424 19.2,-50.794 18.139,-51.097C18.097,-51.109 18.062,-51.134 18.039,-51.166C18.011,-51.202 17.995,-51.243 17.998,-51.284L17.998,-59.3C17.998,-59.627 17.931,-59.943 17.811,-60.233C17.686,-60.533 17.503,-60.803 17.277,-61.026C17.052,-61.251 16.783,-61.432 16.485,-61.557C16.196,-61.677 15.88,-61.745 15.553,-61.745L5.717,-61.745C5.389,-61.745 5.074,-61.677 4.784,-61.557C4.487,-61.432 4.217,-61.251 3.99,-61.026C3.546,-60.583 3.271,-59.971 3.271,-59.3L3.271,-51.284C3.271,-51.237 3.255,-51.195 3.231,-51.161C3.206,-51.131 3.168,-51.106 3.124,-51.095L3.092,-51.085C2.024,-50.776 0.992,-50.409 0,-49.987M3.458,-49.683C2.476,-49.4 1.512,-49.054 0.568,-48.653C-0.389,-48.246 -1.316,-47.783 -2.207,-47.267C-3.112,-46.744 -3.985,-46.165 -4.822,-45.534C-5.662,-44.9 -6.46,-44.219 -7.21,-43.496C-7.477,-43.24 -7.808,-43.09 -8.149,-43.049C-8.497,-43.006 -8.857,-43.077 -9.171,-43.258C-11.473,-44.588 -13.895,-45.904 -16.15,-47.289C-16.259,-47.345 -16.375,-47.381 -16.489,-47.393C-16.619,-47.408 -16.75,-47.397 -16.874,-47.363C-17.001,-47.329 -17.123,-47.271 -17.227,-47.191C-17.326,-47.115 -17.414,-47.017 -17.481,-46.902C-19.16,-44.362 -20.845,-41.081 -22.398,-38.387C-22.466,-38.272 -22.506,-38.149 -22.522,-38.025C-22.538,-37.897 -22.527,-37.76 -22.492,-37.63C-22.458,-37.502 -22.4,-37.382 -22.321,-37.277C-22.244,-37.176 -22.146,-37.09 -22.031,-37.022C-19.959,-35.653 -17.291,-34.282 -15.094,-33.014C-14.772,-32.829 -14.538,-32.552 -14.403,-32.237C-14.356,-32.128 -14.321,-32.013 -14.299,-31.895L-14.157,-31.848L-14.317,-31.201C-14.442,-30.692 -14.553,-30.183 -14.646,-29.677C-14.736,-29.184 -14.815,-28.668 -14.88,-28.13C-14.943,-27.605 -14.992,-27.085 -15.022,-26.57C-15.053,-26.067 -15.068,-25.541 -15.068,-24.994C-15.068,-24.446 -15.053,-23.92 -15.022,-23.419C-14.992,-22.903 -14.943,-22.383 -14.88,-21.857C-14.815,-21.319 -14.736,-20.803 -14.646,-20.31C-14.552,-19.803 -14.442,-19.295 -14.316,-18.785C-14.223,-18.408 -14.269,-18.03 -14.42,-17.703C-14.57,-17.378 -14.829,-17.104 -15.163,-16.933L-21.305,-13.386L-21.303,-13.383L-22.031,-12.964C-22.147,-12.897 -22.244,-12.809 -22.321,-12.71C-22.399,-12.606 -22.458,-12.485 -22.492,-12.357C-22.527,-12.225 -22.538,-12.09 -22.522,-11.96C-22.506,-11.838 -22.466,-11.714 -22.398,-11.599L-17.852,-3.719L-17.849,-3.72L-17.481,-3.085C-17.414,-2.969 -17.326,-2.871 -17.227,-2.796C-17.123,-2.716 -17.001,-2.657 -16.874,-2.623C-16.744,-2.589 -16.608,-2.578 -16.48,-2.594C-16.357,-2.609 -16.235,-2.65 -16.12,-2.716C-13.919,-4.098 -11.437,-5.419 -9.167,-6.728C-8.843,-6.913 -8.489,-6.976 -8.152,-6.936C-7.803,-6.895 -7.473,-6.742 -7.213,-6.494L-7.21,-6.49C-6.459,-5.766 -5.661,-5.085 -4.82,-4.451C-3.985,-3.822 -3.112,-3.243 -2.207,-2.719C-1.311,-2.202 -0.377,-1.735 0.587,-1.325C1.534,-0.924 2.517,-0.574 3.528,-0.284C3.885,-0.182 4.18,0.031 4.389,0.306C4.6,0.585 4.72,0.933 4.721,1.298L4.723,9.313C4.723,9.448 4.75,9.576 4.798,9.69C4.847,9.809 4.922,9.919 5.017,10.013C5.107,10.107 5.219,10.181 5.34,10.233C5.455,10.28 5.582,10.307 5.717,10.307L15.553,10.307C15.687,10.307 15.814,10.28 15.93,10.233C16.052,10.181 16.162,10.107 16.254,10.015C16.347,9.919 16.422,9.809 16.472,9.69C16.52,9.576 16.546,9.448 16.546,9.313L16.546,1.296C16.546,0.915 16.679,0.562 16.902,0.281C17.128,-0.007 17.448,-0.218 17.812,-0.303C18.792,-0.587 19.757,-0.931 20.7,-1.334C21.658,-1.741 22.585,-2.205 23.477,-2.719C24.381,-3.243 25.255,-3.822 26.09,-4.452C26.93,-5.085 27.729,-5.766 28.479,-6.491C28.758,-6.758 29.108,-6.909 29.467,-6.941C29.833,-6.974 30.207,-6.886 30.522,-6.676L37.384,-2.716C37.498,-2.65 37.622,-2.609 37.748,-2.593C37.876,-2.577 38.012,-2.589 38.144,-2.623C38.271,-2.657 38.391,-2.716 38.496,-2.796C38.596,-2.871 38.683,-2.968 38.75,-3.085C40.38,-5.927 42.036,-8.758 43.668,-11.6C43.734,-11.715 43.775,-11.838 43.791,-11.963C43.807,-12.091 43.796,-12.226 43.762,-12.357C43.727,-12.486 43.669,-12.607 43.59,-12.711C43.516,-12.813 43.419,-12.899 43.307,-12.964L36.364,-16.972C36.042,-17.156 35.807,-17.433 35.672,-17.749C35.635,-17.834 35.607,-17.922 35.585,-18.012L35.404,-18.05L35.585,-18.785C35.712,-19.294 35.822,-19.803 35.915,-20.309C36.005,-20.802 36.084,-21.319 36.149,-21.857C36.213,-22.383 36.262,-22.903 36.292,-23.419C36.322,-23.921 36.338,-24.446 36.338,-24.994C36.338,-25.541 36.322,-26.066 36.292,-26.568C36.262,-27.082 36.214,-27.604 36.15,-28.128C36.083,-28.673 36.005,-29.19 35.915,-29.679C35.822,-30.185 35.712,-30.694 35.585,-31.201C35.493,-31.58 35.539,-31.961 35.69,-32.286C35.843,-32.61 36.1,-32.883 36.429,-33.052L43.303,-37.022C43.417,-37.086 43.513,-37.174 43.59,-37.276C43.669,-37.377 43.727,-37.498 43.762,-37.63C43.796,-37.76 43.807,-37.894 43.791,-38.023C43.775,-38.148 43.734,-38.271 43.668,-38.386C41.989,-40.883 40.308,-44.217 38.75,-46.902C38.683,-47.017 38.596,-47.115 38.496,-47.191C38.393,-47.27 38.271,-47.329 38.144,-47.363C38.012,-47.398 37.877,-47.409 37.749,-47.393C37.627,-47.378 37.503,-47.337 37.385,-47.268L30.439,-43.259C30.112,-43.068 29.746,-43.005 29.398,-43.051C29.048,-43.099 28.717,-43.259 28.458,-43.515C27.705,-44.242 26.909,-44.92 26.081,-45.544C25.256,-46.165 24.386,-46.741 23.476,-47.267C22.579,-47.785 21.646,-48.252 20.682,-48.661C19.735,-49.063 18.753,-49.412 17.742,-49.702C17.385,-49.804 17.089,-50.016 16.88,-50.293C16.669,-50.572 16.549,-50.92 16.549,-51.284L16.546,-59.3C16.546,-59.434 16.52,-59.562 16.472,-59.675C16.422,-59.795 16.347,-59.905 16.253,-59.999C16.162,-60.092 16.052,-60.167 15.93,-60.218C15.814,-60.265 15.687,-60.292 15.553,-60.292L5.717,-60.292C5.582,-60.292 5.455,-60.265 5.34,-60.218C5.219,-60.168 5.107,-60.092 5.015,-60.001C4.835,-59.818 4.723,-59.57 4.723,-59.3L4.723,-51.284C4.723,-50.9 4.59,-50.547 4.37,-50.266C4.14,-49.979 3.821,-49.768 3.458,-49.683M5.191,-38.145C3.456,-37.426 1.89,-36.368 0.574,-35.053C-0.74,-33.739 -1.798,-32.173 -2.518,-30.436C-3.211,-28.763 -3.593,-26.925 -3.593,-24.994C-3.593,-23.062 -3.211,-21.223 -2.518,-19.55C-1.798,-17.814 -0.74,-16.248 0.574,-14.933C1.889,-13.619 3.456,-12.561 5.191,-11.841C6.865,-11.148 8.704,-10.765 10.635,-10.765C12.564,-10.765 14.402,-11.148 16.075,-11.841C17.813,-12.56 19.38,-13.619 20.695,-14.933C22.009,-16.248 23.068,-17.814 23.787,-19.55C24.479,-21.223 24.862,-23.062 24.862,-24.994C24.862,-26.925 24.479,-28.763 23.787,-30.436C23.068,-32.173 22.01,-33.739 20.695,-35.053C19.38,-36.368 17.813,-37.426 16.078,-38.145C14.405,-38.839 12.567,-39.221 10.635,-39.221C8.704,-39.221 6.865,-38.839 5.191,-38.145M-0.453,-36.081C0.99,-37.523 2.717,-38.688 4.641,-39.484C6.491,-40.251 8.515,-40.674 10.635,-40.674C12.754,-40.674 14.778,-40.251 16.628,-39.484C18.552,-38.688 20.28,-37.523 21.723,-36.081C23.165,-34.638 24.33,-32.91 25.126,-30.986C25.892,-29.137 26.314,-27.113 26.314,-24.994C26.314,-22.874 25.892,-20.849 25.126,-18.999C24.329,-17.076 23.165,-15.348 21.723,-13.906C20.281,-12.464 18.553,-11.3 16.63,-10.504C14.782,-9.736 12.755,-9.313 10.635,-9.313C8.515,-9.313 6.49,-9.736 4.641,-10.503C2.718,-11.299 0.989,-12.464 -0.453,-13.906C-1.895,-15.348 -3.06,-17.076 -3.856,-18.999C-4.623,-20.848 -5.045,-22.874 -5.045,-24.994C-5.045,-27.113 -4.623,-29.137 -3.856,-30.986C-3.06,-32.91 -1.895,-34.638 -0.453,-36.081" style="fill:rgb(192,205,234);"/>
        </g>
        <g transform="matrix(1,0,0,1,347.275,120.55)">
            <path d="M0,-22.606C-0.922,-22.34 -1.796,-21.965 -2.608,-21.496C-3.441,-21.014 -4.209,-20.434 -4.896,-19.771C-5.031,-19.641 -5.23,-19.623 -5.384,-19.711L-8.477,-21.497L-8.493,-21.507C-8.67,-21.602 -8.872,-21.621 -9.057,-21.571C-9.248,-21.521 -9.418,-21.398 -9.523,-21.215L-9.536,-21.195L-11.711,-17.426C-11.816,-17.245 -11.837,-17.035 -11.787,-16.844C-11.736,-16.654 -11.613,-16.483 -11.431,-16.378L-11.41,-16.365L-8.342,-14.594C-8.182,-14.502 -8.108,-14.316 -8.15,-14.144L-8.149,-14.143C-8.262,-13.688 -8.349,-13.218 -8.407,-12.737C-8.464,-12.269 -8.494,-11.791 -8.494,-11.303C-8.494,-10.817 -8.464,-10.337 -8.407,-9.871C-8.349,-9.39 -8.262,-8.92 -8.148,-8.463C-8.102,-8.274 -8.197,-8.084 -8.364,-8L-11.431,-6.229C-11.613,-6.124 -11.736,-5.953 -11.787,-5.763C-11.837,-5.573 -11.816,-5.363 -11.711,-5.181L-9.523,-1.391C-9.418,-1.21 -9.248,-1.086 -9.057,-1.035C-8.867,-0.985 -8.658,-1.005 -8.477,-1.11L-8.453,-1.123L-5.382,-2.896C-5.222,-2.988 -5.024,-2.96 -4.896,-2.836C-4.209,-2.173 -3.441,-1.593 -2.608,-1.112C-1.792,-0.639 -0.911,-0.263 0.017,0.004C0.197,0.055 0.314,0.219 0.315,0.397L0.315,3.964C0.315,4.174 0.401,4.366 0.54,4.504C0.679,4.643 0.87,4.73 1.08,4.73L5.458,4.73C5.668,4.73 5.858,4.643 5.997,4.504C6.138,4.366 6.223,4.174 6.223,3.964L6.223,0.397C6.223,0.205 6.357,0.041 6.537,-0.001C7.46,-0.267 8.334,-0.643 9.146,-1.112C9.978,-1.593 10.746,-2.173 11.435,-2.836C11.574,-2.971 11.785,-2.986 11.941,-2.883L15.013,-1.11C15.194,-1.005 15.404,-0.985 15.595,-1.035C15.785,-1.086 15.955,-1.21 16.061,-1.391L16.073,-1.413L18.251,-5.182L18.249,-5.183C18.354,-5.364 18.375,-5.573 18.325,-5.763C18.273,-5.954 18.15,-6.125 17.97,-6.229L14.88,-8.012C14.72,-8.105 14.646,-8.292 14.688,-8.463L14.687,-8.463C14.8,-8.92 14.887,-9.389 14.943,-9.87C15.002,-10.337 15.031,-10.816 15.031,-11.303C15.031,-11.791 15.002,-12.27 14.943,-12.738C14.887,-13.218 14.8,-13.688 14.687,-14.143C14.639,-14.334 14.734,-14.525 14.902,-14.607L17.97,-16.378C18.15,-16.482 18.273,-16.653 18.325,-16.844C18.375,-17.034 18.354,-17.244 18.249,-17.425L18.237,-17.448L16.062,-21.216L16.061,-21.215C15.955,-21.398 15.785,-21.521 15.595,-21.571C15.404,-21.622 15.196,-21.601 15.015,-21.498L15.015,-21.497L11.921,-19.711C11.758,-19.616 11.553,-19.649 11.426,-19.779C10.74,-20.439 9.975,-21.016 9.146,-21.496C8.329,-21.967 7.447,-22.345 6.52,-22.611C6.341,-22.663 6.224,-22.826 6.223,-23.003L6.223,-26.572C6.223,-26.782 6.138,-26.972 5.997,-27.111C5.858,-27.251 5.668,-27.336 5.458,-27.336L1.08,-27.336C0.87,-27.336 0.679,-27.251 0.54,-27.111C0.401,-26.972 0.315,-26.782 0.315,-26.572L0.315,-23.003C0.315,-22.81 0.181,-22.649 0,-22.606M-1.437,-16.009C-0.232,-17.214 1.431,-17.959 3.269,-17.959C5.106,-17.959 6.77,-17.214 7.975,-16.009C9.18,-14.805 9.924,-13.141 9.924,-11.303C9.924,-9.465 9.18,-7.801 7.975,-6.597C6.77,-5.393 5.106,-4.648 3.269,-4.648C1.431,-4.648 -0.232,-5.393 -1.437,-6.597C-2.642,-7.801 -3.387,-9.465 -3.387,-11.303C-3.387,-13.141 -2.642,-14.805 -1.437,-16.009M-4.897,-2.836L-4.896,-2.836L-4.896,-2.837L-4.897,-2.837L-4.897,-2.836Z" style="fill:rgb(192,205,234);"/>
        </g>
        <g transform="matrix(1,0,0,1,671.688,247.213)">
            <path d="M0,-22.606C-0.922,-22.34 -1.797,-21.964 -2.607,-21.496C-3.439,-21.014 -4.209,-20.433 -4.896,-19.77C-5.031,-19.641 -5.23,-19.623 -5.385,-19.711L-8.477,-21.497L-8.492,-21.506C-8.67,-21.603 -8.871,-21.621 -9.057,-21.571C-9.248,-21.52 -9.418,-21.397 -9.523,-21.215L-9.537,-21.195L-11.711,-17.426C-11.816,-17.245 -11.838,-17.035 -11.787,-16.844C-11.734,-16.653 -11.611,-16.483 -11.43,-16.378L-11.41,-16.365L-8.342,-14.594C-8.182,-14.502 -8.107,-14.315 -8.148,-14.143C-8.262,-13.687 -8.35,-13.217 -8.408,-12.737C-8.463,-12.269 -8.492,-11.791 -8.492,-11.303C-8.492,-10.817 -8.463,-10.338 -8.408,-9.87C-8.35,-9.389 -8.262,-8.92 -8.148,-8.463C-8.104,-8.274 -8.195,-8.084 -8.365,-8L-11.43,-6.23L-11.43,-6.229C-11.611,-6.124 -11.734,-5.953 -11.787,-5.763C-11.838,-5.573 -11.816,-5.363 -11.711,-5.18L-9.523,-1.391C-9.418,-1.21 -9.248,-1.086 -9.057,-1.036C-8.867,-0.985 -8.658,-1.005 -8.477,-1.11L-8.453,-1.123L-5.383,-2.896C-5.221,-2.988 -5.023,-2.959 -4.896,-2.836C-4.209,-2.173 -3.441,-1.593 -2.607,-1.111C-1.791,-0.639 -0.912,-0.263 0.018,0.003C0.197,0.055 0.314,0.22 0.314,0.398L0.314,3.964C0.314,4.174 0.402,4.366 0.541,4.504C0.68,4.644 0.871,4.73 1.08,4.73L5.459,4.73C5.668,4.73 5.857,4.644 5.998,4.504C6.137,4.366 6.225,4.174 6.225,3.964L6.225,0.398C6.225,0.205 6.357,0.041 6.537,-0.002C7.459,-0.267 8.336,-0.642 9.146,-1.111C9.979,-1.593 10.746,-2.173 11.436,-2.836C11.574,-2.971 11.787,-2.987 11.943,-2.883L15.014,-1.11C15.195,-1.004 15.404,-0.985 15.596,-1.036C15.785,-1.086 15.955,-1.21 16.061,-1.391L16.074,-1.413L18.25,-5.182L18.25,-5.183C18.354,-5.364 18.377,-5.573 18.324,-5.763C18.273,-5.954 18.15,-6.125 17.971,-6.229L14.881,-8.012C14.719,-8.105 14.645,-8.292 14.688,-8.463C14.801,-8.92 14.887,-9.389 14.945,-9.869C15.002,-10.337 15.031,-10.816 15.031,-11.303C15.031,-11.791 15.002,-12.269 14.945,-12.738C14.887,-13.217 14.801,-13.687 14.688,-14.143C14.641,-14.334 14.734,-14.524 14.902,-14.607L17.971,-16.378C18.15,-16.482 18.273,-16.653 18.324,-16.844C18.377,-17.034 18.354,-17.243 18.25,-17.424L18.236,-17.448L16.062,-21.216L16.062,-21.215C15.955,-21.397 15.785,-21.52 15.596,-21.571C15.404,-21.623 15.195,-21.602 15.014,-21.498L15.014,-21.497L11.922,-19.711C11.758,-19.616 11.553,-19.649 11.426,-19.779C10.74,-20.439 9.977,-21.016 9.146,-21.496C8.328,-21.967 7.449,-22.345 6.52,-22.611C6.342,-22.663 6.225,-22.826 6.225,-23.004L6.225,-26.572C6.225,-26.782 6.137,-26.972 5.998,-27.112C5.857,-27.251 5.668,-27.336 5.459,-27.336L1.08,-27.336C0.871,-27.336 0.68,-27.251 0.541,-27.112C0.402,-26.972 0.314,-26.782 0.314,-26.572L0.314,-23.004C0.314,-22.81 0.182,-22.649 0,-22.606M-1.437,-16.009C-0.232,-17.213 1.432,-17.959 3.27,-17.959C5.107,-17.959 6.77,-17.213 7.975,-16.009C9.178,-14.805 9.924,-13.141 9.924,-11.303C9.924,-9.465 9.178,-7.801 7.975,-6.597C6.77,-5.393 5.107,-4.648 3.27,-4.648C1.432,-4.648 -0.232,-5.393 -1.437,-6.597C-2.641,-7.801 -3.385,-9.465 -3.385,-11.303C-3.385,-13.141 -2.641,-14.805 -1.437,-16.009M-4.896,-2.835L-4.895,-2.835L-4.895,-2.836L-4.896,-2.836L-4.896,-2.835Z" style="fill:rgb(192,205,234);"/>
        </g>
        <g transform="matrix(1,0,0,1,695.322,278.105)">
            <path d="M0,-7.653C0,-8.282 -0.512,-8.794 -1.141,-8.794C-1.771,-8.794 -2.281,-8.282 -2.281,-7.653L-2.281,-4.967L-4.967,-4.967C-5.598,-4.967 -6.107,-4.457 -6.107,-3.827C-6.107,-3.196 -5.598,-2.684 -4.967,-2.684L-2.281,-2.684L-2.281,-0.001C-2.281,0.63 -1.771,1.141 -1.141,1.141C-0.512,1.141 0,0.63 0,-0.001L0,-2.684L2.684,-2.684C3.314,-2.684 3.826,-3.196 3.826,-3.827C3.826,-4.457 3.314,-4.967 2.684,-4.967L0,-4.967L0,-7.653Z" style="fill:rgb(159,178,217);"/>
        </g>
        <g transform="matrix(1,0,0,1,448.861,265.454)">
            <path d="M0,-8.979L-68.018,-8.979C-70.484,-8.979 -72.506,-6.959 -72.506,-4.49C-72.506,-2.021 -70.484,0 -68.018,0L0,0C2.471,0 4.49,-2.021 4.49,-4.49C4.49,-6.959 2.471,-8.979 0,-8.979" style="fill:rgb(0,0,15);"/>
        </g>
        <g transform="matrix(1,0,0,1,446.584,265.454)">
            <path d="M0,-40.977L-31.477,-40.977C-31.736,-40.977 -31.979,-40.765 -32.014,-40.506L-37.656,-0.471C-37.691,-0.213 -37.51,0 -37.25,0L5.775,0C6.035,0 6.215,-0.213 6.18,-0.471L0.537,-40.506C0.5,-40.765 0.26,-40.977 0,-40.977" style="fill:rgb(59,64,95);"/>
        </g>
        <g transform="matrix(1,0,0,1,465.463,265.454)">
            <path d="M0,-8.979L-68.016,-8.979C-70.486,-8.979 -72.506,-6.959 -72.506,-4.49C-72.506,-2.021 -70.486,0 -68.016,0L0,0C2.469,0 4.49,-2.021 4.49,-4.49C4.49,-6.959 2.469,-8.979 0,-8.979" style="fill:rgb(59,64,95);"/>
        </g>
        <g transform="matrix(1,0,0,1,499.697,241.762)">
            <path d="M0,-105.489L-150.791,-105.489C-152.069,-105.489 -153.116,-104.443 -153.116,-103.165L-153.116,-2.325C-153.116,-1.046 -152.069,0 -150.791,0L0,0C1.279,0 2.324,-1.046 2.324,-2.325L2.324,-103.165C2.324,-104.443 1.279,-105.489 0,-105.489" style="fill:rgb(0,0,15);"/>
        </g>
        <g transform="matrix(1,0,0,1,507.068,241.762)">
            <path d="M0,-105.489L-150.791,-105.489C-152.068,-105.489 -153.115,-104.443 -153.115,-103.165L-153.115,-2.325C-153.115,-1.046 -152.068,0 -150.791,0L0,0C1.279,0 2.326,-1.046 2.326,-2.325L2.326,-103.165C2.326,-104.443 1.279,-105.489 0,-105.489" style="fill:rgb(59,64,95);"/>
        </g>
        <g transform="matrix(1,0,0,1,505.81,231.211)">
            <path d="M0,-93.425L-148.272,-93.425C-149.119,-93.425 -149.813,-92.73 -149.813,-91.885L-149.813,-0.959C-149.813,-0.43 -149.381,0 -148.854,0L0.58,0C1.109,0 1.539,-0.43 1.539,-0.959L1.539,-91.885C1.539,-92.73 0.846,-93.425 0,-93.425" style="fill:rgb(16,21,55);"/>
        </g>
        <g transform="matrix(-1,0,0,1,863.348,-131.002)">
            <rect x="360.354" y="273.144" width="142.64" height="84.714" style="fill:rgb(94,185,189);"/>
        </g>
        <g transform="matrix(1,0,0,1,418.457,252.325)">
            <path d="M0,-6.412L-1.488,4.15L-8.33,4.15L-6.258,-10.562L31.033,-10.562L31.553,-6.884L0.537,-6.884C0.277,-6.884 0.037,-6.672 0,-6.412" style="fill:rgb(16,21,55);"/>
        </g>
        <g transform="matrix(1,0,0,1,0,-210.842)">
            <rect x="360.352" y="352.985" width="143.134" height="4.872" style="fill:white;"/>
        </g>
        <g transform="matrix(1,0,0,1,0,-51.161)">
            <rect x="360.352" y="273.144" width="143.134" height="4.873" style="fill:white;"/>
        </g>
        <g transform="matrix(1,0,0,1,0,-210.844)">
            <rect x="361.25" y="354.02" width="35.947" height="2.804" style="fill:rgb(228,225,232);"/>
        </g>
        <g transform="matrix(1,0,0,1,395.473,143.963)">
            <path d="M0,1.228C0.338,1.228 0.613,0.954 0.613,0.615C0.613,0.277 0.338,0 0,0C-0.338,0 -0.613,0.277 -0.613,0.615C-0.613,0.954 -0.338,1.228 0,1.228" style="fill:rgb(214,76,71);"/>
        </g>
        <g transform="matrix(1,0,0,1,393.603,143.963)">
            <path d="M0,1.228C0.338,1.228 0.615,0.954 0.615,0.615C0.615,0.277 0.338,0 0,0C-0.338,0 -0.613,0.277 -0.613,0.615C-0.613,0.954 -0.338,1.228 0,1.228" style="fill:rgb(214,76,71);"/>
        </g>
        <g transform="matrix(1,0,0,1,391.734,143.963)">
            <path d="M0,1.228C0.338,1.228 0.615,0.954 0.615,0.615C0.615,0.277 0.338,0 0,0C-0.338,0 -0.613,0.277 -0.613,0.615C-0.613,0.954 -0.338,1.228 0,1.228" style="fill:rgb(214,76,71);"/>
        </g>
        <g transform="matrix(1,0,0,1,0,-210.844)">
            <rect x="398.895" y="354.02" width="35.947" height="2.804" style="fill:rgb(228,225,232);"/>
        </g>
        <g transform="matrix(1,0,0,1,433.115,143.963)">
            <path d="M0,1.228C0.34,1.228 0.615,0.954 0.615,0.615C0.615,0.277 0.34,0 0,0C-0.336,0 -0.613,0.277 -0.613,0.615C-0.613,0.954 -0.336,1.228 0,1.228" style="fill:rgb(214,76,71);"/>
        </g>
        <g transform="matrix(1,0,0,1,431.248,143.963)">
            <path d="M0,1.228C0.338,1.228 0.613,0.954 0.613,0.615C0.613,0.277 0.338,0 0,0C-0.338,0 -0.615,0.277 -0.615,0.615C-0.615,0.954 -0.338,1.228 0,1.228" style="fill:rgb(214,76,71);"/>
        </g>
        <g transform="matrix(1,0,0,1,429.379,143.963)">
            <path d="M0,1.228C0.338,1.228 0.615,0.954 0.615,0.615C0.615,0.277 0.338,0 0,0C-0.338,0 -0.613,0.277 -0.613,0.615C-0.613,0.954 -0.338,1.228 0,1.228" style="fill:rgb(214,76,71);"/>
        </g>
        <g transform="matrix(1,0,0,1,0,-69.269)">
            <rect x="412.35" y="281.797" width="17.025" height="5.675" style="fill:white;"/>
        </g>
        <g transform="matrix(1,0,0,1,0,-69.269)">
            <rect x="433.973" y="281.797" width="17.025" height="5.675" style="fill:white;"/>
        </g>
        <text x="373.18px" y="198.98px" style="font-family:'OpenSans-Bold', 'Open Sans', sans-serif;font-weight:700;font-size:7.489px;fill:white;">ERROR</text>
        <g>
            <text x="388.743px" y="198.907px" style="font-family:'RobotoCondensed-Bold', 'Roboto Condensed';font-weight:700;font-size:58.217px;fill:white;">4<tspan x="417.648px 446.553px " y="198.907px 198.907px ">04</tspan></text>
            <text x="415.833px" y="216.513px" style="font-family:'OpenSans-Bold', 'Open Sans', sans-serif;font-weight:700;font-size:2.496px;fill:rgb(214,76,71);">RELOAD</text>
        </g>
        <text x="438.601px" y="216.509px" style="font-family:'OpenSans-Bold', 'Open Sans', sans-serif;font-weight:700;font-size:2.496px;fill:rgb(214,76,71);">HOME</text>
        <g transform="matrix(1,0,0,1,371.353,204.931)">
            <path d="M0,-1.535L120.641,-1.535C121.063,-1.535 121.409,-1.189 121.409,-0.768C121.409,-0.345 121.063,0 120.641,0L0,0C-0.422,0 -0.768,-0.345 -0.768,-0.768C-0.768,-1.189 -0.422,-1.535 0,-1.535" style="fill:white;"/>
        </g>
        <g transform="matrix(1,0,0,1,380.805,208.566)">
            <path d="M0,-1.535L101.738,-1.535C102.16,-1.535 102.506,-1.189 102.506,-0.767C102.506,-0.346 102.16,0 101.738,0L0,0C-0.422,0 -0.768,-0.346 -0.768,-0.767C-0.768,-1.189 -0.422,-1.535 0,-1.535" style="fill:white;"/>
        </g>
        <g transform="matrix(1,0,0,1,430.615,269.945)">
            <path d="M0,-17.963L88.424,-17.963C93.363,-17.963 97.406,-13.922 97.406,-8.982C97.406,-4.042 93.363,0 88.424,0L0,0C-4.937,0 -8.98,-4.042 -8.98,-8.982C-8.98,-13.922 -4.937,-17.963 0,-17.963" style="fill:rgb(16,21,55);"/>
        </g>
        <g transform="matrix(1,0,0,1,413.738,269.945)">
            <path d="M0,-17.963L40.955,-17.963C45.893,-17.963 49.936,-13.922 49.936,-8.982C49.936,-4.042 45.893,0 40.955,0L0,0C-4.939,0 -8.982,-4.042 -8.982,-8.982C-8.982,-13.922 -4.939,-17.963 0,-17.963" style="fill:rgb(7,7,37);"/>
        </g>
        <g transform="matrix(1,0,0,1,368.072,300.19)">
            <path d="M0,-33.516L274.192,-33.516C276.958,-33.516 279.219,-31.253 279.219,-28.489L279.219,-5.027C279.219,-2.264 276.958,0 274.192,0L0,0C-2.765,0 -5.026,-2.264 -5.026,-5.027L-5.026,-28.489C-5.026,-31.253 -2.765,-33.516 0,-33.516" style="fill:rgb(16,21,55);"/>
        </g>
        <g transform="matrix(1,0,0,1,367.933,285.955)">
            <path d="M0,-19.281L274.469,-19.281C277.159,-19.281 279.358,-17.018 279.358,-14.254L279.358,-5.026C279.358,-2.26 277.159,0 274.469,0L0,0C-2.689,0 -4.888,-2.26 -4.888,-5.026L-4.888,-14.254C-4.888,-17.018 -2.689,-19.281 0,-19.281" style="fill:rgb(0,0,15);"/>
        </g>
        <g transform="matrix(1,0,0,1,292.727,450.299)">
            <path d="M0,-183.208L75.864,-183.208C78.731,-183.208 81.077,-180.861 81.077,-177.998L81.077,-5.211C81.077,-2.348 78.731,0 75.864,0L0,0C-2.866,0 -5.212,-2.348 -5.212,-5.211L-5.212,-177.998C-5.212,-180.861 -2.866,-183.208 0,-183.208" style="fill:rgb(0,0,15);"/>
        </g>
        <g transform="matrix(1,0,0,1,367.653,450.299)">
            <path d="M0,-183.208L67.912,-183.208C70.476,-183.208 72.576,-181.111 72.576,-178.543L72.576,-4.666C72.576,-2.098 70.476,0 67.912,0L0,0C-2.567,0 -4.666,-2.098 -4.666,-4.666L-4.666,-178.543C-4.666,-181.111 -2.567,-183.208 0,-183.208" style="fill:rgb(16,21,55);"/>
        </g>
        <g transform="matrix(1,0,0,1,364.758,272.385)">
            <path d="M0,-11.421L294.263,-11.421C295.207,-11.421 295.976,-10.65 295.976,-9.708L295.976,-1.713C295.976,-0.771 295.207,0 294.263,0L0,0C-0.943,0 -1.713,-0.771 -1.713,-1.713L-1.713,-9.708C-1.713,-10.65 -0.943,-11.421 0,-11.421" style="fill:rgb(213,135,80);"/>
        </g>
        <g transform="matrix(1,0,0,1,280.35,272.385)">
            <path d="M0,-11.421L84.012,-11.421C84.955,-11.421 85.725,-10.65 85.725,-9.708L85.725,-1.713C85.725,-0.771 84.955,0 84.012,0L0,0C-0.942,0 -1.713,-0.771 -1.713,-1.713L-1.713,-9.708C-1.713,-10.65 -0.942,-11.421 0,-11.421" style="fill:rgb(181,107,65);"/>
        </g>
        <g transform="matrix(1,0,0,1,372.657,330.827)">
            <path d="M0,-52.661L57.902,-52.661C60.041,-52.661 61.792,-50.911 61.792,-48.772L61.792,-3.889C61.792,-1.751 60.041,0 57.902,0L0,0C-2.14,0 -3.891,-1.751 -3.891,-3.889L-3.891,-48.772C-3.891,-50.911 -2.14,-52.661 0,-52.661" style="fill:white;"/>
        </g>
        <g transform="matrix(1,0,0,1,434.404,281.475)">
            <path d="M0,46.044L-57.113,46.044C-58.636,46.044 -59.962,45.156 -60.6,43.873C-60.859,43.354 -61.003,42.77 -61.003,42.153L-61.003,-2.728C-61.003,-2.926 -60.989,-3.121 -60.959,-3.309L-61.748,-3.309C-63.887,-3.309 -65.638,-1.559 -65.638,0.58L-65.638,45.464C-65.638,47.602 -63.887,49.353 -61.748,49.353L-3.846,49.353C-1.904,49.353 -0.283,47.91 0,46.044" style="fill:rgb(228,225,232);"/>
        </g>
        <g transform="matrix(1,0,0,1,387.635,284.748)">
            <path d="M0,-3.477L27.945,-3.477C28.771,-3.477 29.447,-2.802 29.447,-1.975L29.447,-1.502C29.447,-0.677 28.771,0 27.945,0L0,0C-0.826,0 -1.502,-0.677 -1.502,-1.502L-1.502,-1.975C-1.502,-2.802 -0.826,-3.477 0,-3.477" style="fill:rgb(7,7,37);"/>
        </g>
        <g transform="matrix(1,0,0,1,372.657,386.279)">
            <path d="M0,-52.663L57.902,-52.663C60.041,-52.663 61.792,-50.913 61.792,-48.772L61.792,-3.891C61.792,-1.752 60.041,0 57.902,0L0,0C-2.14,0 -3.891,-1.752 -3.891,-3.891L-3.891,-48.772C-3.891,-50.913 -2.14,-52.663 0,-52.663" style="fill:white;"/>
        </g>
        <g transform="matrix(1,0,0,1,434.404,336.928)">
            <path d="M0,46.04L-57.113,46.04C-58.636,46.04 -59.962,45.155 -60.6,43.87C-60.859,43.351 -61.003,42.769 -61.003,42.15L-61.003,-2.732C-61.003,-2.929 -60.989,-3.122 -60.959,-3.312L-61.748,-3.312C-63.887,-3.312 -65.638,-1.562 -65.638,0.579L-65.638,45.461C-65.638,47.6 -63.887,49.352 -61.748,49.352L-3.846,49.352C-1.904,49.352 -0.283,47.908 0,46.04" style="fill:rgb(228,225,232);"/>
        </g>
        <g transform="matrix(1,0,0,1,387.635,340.198)">
            <path d="M0,-3.476L27.945,-3.476C28.771,-3.476 29.447,-2.799 29.447,-1.974L29.447,-1.502C29.447,-0.676 28.771,0 27.945,0L0,0C-0.826,0 -1.502,-0.676 -1.502,-1.502L-1.502,-1.974C-1.502,-2.799 -0.826,-3.476 0,-3.476" style="fill:rgb(7,7,37);"/>
        </g>
        <g transform="matrix(1,0,0,1,372.657,441.729)">
            <path d="M0,-52.663L57.902,-52.663C60.041,-52.663 61.792,-50.912 61.792,-48.771L61.792,-3.891C61.792,-1.75 60.041,0 57.902,0L0,0C-2.14,0 -3.891,-1.75 -3.891,-3.891L-3.891,-48.771C-3.891,-50.912 -2.14,-52.663 0,-52.663" style="fill:white;"/>
        </g>
        <g transform="matrix(1,0,0,1,434.404,392.376)">
            <path d="M0,46.044L-57.113,46.044C-58.636,46.044 -59.962,45.156 -60.6,43.874C-60.859,43.355 -61.003,42.77 -61.003,42.152L-61.003,-2.728C-61.003,-2.927 -60.989,-3.119 -60.959,-3.31L-61.748,-3.31C-63.887,-3.31 -65.638,-1.559 -65.638,0.582L-65.638,45.463C-65.638,47.604 -63.887,49.354 -61.748,49.354L-3.846,49.354C-1.904,49.354 -0.283,47.911 0,46.044" style="fill:rgb(228,225,232);"/>
        </g>
        <g transform="matrix(1,0,0,1,387.635,395.649)">
            <path d="M0,-3.476L27.945,-3.476C28.771,-3.476 29.447,-2.801 29.447,-1.975L29.447,-1.501C29.447,-0.675 28.771,0 27.945,0L0,0C-0.826,0 -1.502,-0.675 -1.502,-1.501L-1.502,-1.975C-1.502,-2.801 -0.826,-3.476 0,-3.476" style="fill:rgb(7,7,37);"/>
        </g>
        <g transform="matrix(1,0,0,1,601.236,452.517)">
            <path d="M0,-185.426L-10.475,-185.426C-10.729,-185.426 -10.938,-185.219 -10.938,-184.963L-10.938,-0.465C-10.938,-0.209 -10.729,0 -10.475,0L0,0C0.256,0 0.465,-0.209 0.465,-0.465L0.465,-184.963C0.465,-185.219 0.256,-185.426 0,-185.426" style="fill:rgb(174,171,186);"/>
        </g>
        <g transform="matrix(1,0,0,1,601.129,452.517)">
            <path d="M0,-185.426L-3.266,-185.426C-4.551,-185.426 -5.604,-184.375 -5.604,-183.09L-5.604,-2.337C-5.604,-1.053 -4.551,0 -3.266,0L0,0C1.285,0 2.338,-1.053 2.338,-2.337L2.338,-183.09C2.338,-184.375 1.285,-185.426 0,-185.426" style="fill:white;"/>
        </g>
        <g transform="matrix(1,0,0,1,650.283,452.517)">
            <path d="M0,-185.426L-10.475,-185.426C-10.73,-185.426 -10.938,-185.219 -10.938,-184.963L-10.938,-0.465C-10.938,-0.209 -10.73,0 -10.475,0L0,0C0.254,0 0.465,-0.209 0.465,-0.465L0.465,-184.963C0.465,-185.219 0.254,-185.426 0,-185.426" style="fill:rgb(174,171,186);"/>
        </g>
        <g transform="matrix(1,0,0,1,650.174,452.517)">
            <path d="M0,-185.426L-3.266,-185.426C-4.551,-185.426 -5.602,-184.375 -5.602,-183.09L-5.602,-2.337C-5.602,-1.053 -4.551,0 -3.266,0L0,0C1.287,0 2.338,-1.053 2.338,-2.337L2.338,-183.09C2.338,-184.375 1.287,-185.426 0,-185.426" style="fill:white;"/>
        </g>
        <g transform="matrix(1,0,0,1,488.168,272.385)">
            <path d="M0,-11.421L170.854,-11.421C171.797,-11.421 172.566,-10.65 172.566,-9.708L172.566,-1.713C172.566,-0.771 171.797,0 170.854,0L11.125,0C8.068,-4.189 4.137,-8.032 0,-11.421" style="fill:rgb(181,107,65);"/>
        </g>
        <g transform="matrix(1,0,0,1,550.211,221.234)">
            <path d="M0,-9.847L2.146,-6.259C2.146,-6.259 2.98,-1.904 1.738,1.077C0.498,4.055 15.973,7.283 15.973,7.283L27.971,-2.401L30.619,-5.71C30.619,-5.71 24.992,-11.834 24.66,-14.483C24.33,-17.13 0,-9.847 0,-9.847" style="fill:rgb(237,120,98);"/>
        </g>
        <g transform="matrix(1,0,0,1,523.477,272.173)">
            <path d="M0,-26.48C0,-26.48 -8.109,-19.943 -10.924,-19.447C-13.736,-18.95 -26.064,-24.66 -28.549,-25.322C-31.029,-25.984 -36.574,-25.984 -40.465,-25.984C-44.354,-25.984 -48.492,-24.495 -50.561,-20.191L-42.285,-20.191C-40.051,-20.191 -32.52,-14.069 -25.238,-9.103C-17.955,-4.138 -12.164,0 -7.361,-0.497C-2.563,-0.995 13.988,-13.407 13.988,-13.407L0,-26.48Z" style="fill:rgb(245,172,131);"/>
        </g>
        <g transform="matrix(1,0,0,1,498.238,254.797)">
            <path d="M0,8.273C7.283,13.238 13.074,17.377 17.877,16.879C22.676,16.381 39.227,3.969 39.227,3.969L25.238,-9.104C25.238,-9.104 23.362,-7.594 21.106,-5.972C27,3.392 24.343,7.437 17.429,10.203C11.885,12.42 -2.214,4.714 -11.078,0.409C-7.884,2.615 -3.909,5.607 0,8.273" style="fill:rgb(237,120,98);"/>
        </g>
        <g transform="matrix(1,0,0,1,589.644,412.265)">
            <path d="M0,-90.181C0,-90.181 -41.869,-90.561 -47.047,-90.118C-52.225,-89.673 -57.215,-84.223 -56.354,-75.808C-55.492,-67.392 -43.771,-1.814 -43.771,-1.814C-43.771,-1.814 -42.982,-1.229 -42.072,-1.042C-41.162,-0.857 -33.672,0.38 -33.672,0.38L-33.166,-5.703L-37.549,-69.496L1.068,-76.543L0,-90.181Z" style="fill:rgb(7,7,37);"/>
        </g>
        <g transform="matrix(1,0,0,1,556.479,428.822)">
            <path d="M0,-22.261C0,-22.261 0.877,-22.02 1.264,-20.899C1.652,-19.778 2.453,-12.534 2.377,-11.498C2.303,-10.464 -0.279,-8.462 -4.699,-6.586C-9.119,-4.709 -25.941,0.202 -25.941,0.202L-26.127,-0.409C-26.127,-0.409 -26.918,-0.755 -27.24,-1.789C-27.562,-2.823 -27.453,-5.116 -26.531,-6.424C-25.613,-7.732 -20.18,-11.456 -19.187,-12.254C-18.199,-13.053 -13.279,-19.899 -12.879,-20.358C-12.48,-20.817 -9.879,-22.463 -6.809,-20.75C-3.734,-19.036 -0.256,-19.643 0,-22.261" style="fill:rgb(214,76,71);"/>
        </g>
        <g transform="matrix(1,0,0,1,530.352,419.787)">
            <path d="M0,8.625C0,8.625 16.777,2.468 20.457,1.173C24.137,-0.121 28.463,-3.614 28.463,-3.614C28.463,-3.614 29.059,-3.344 29.184,-2.854C29.311,-2.364 29.408,-0.649 29.451,-0.287C29.494,0.076 29.369,1.697 27.531,2.484C25.693,3.273 2.252,11.531 1.182,11.885C0.109,12.239 -0.322,9.4 -0.322,9.4C-0.322,9.4 -0.389,8.794 0,8.625" style="fill:white;"/>
        </g>
        <g transform="matrix(1,0,0,1,615.57,419.627)">
            <path d="M0,-123.535C0,-123.535 -111.91,-110.612 -118.033,-109.289C-124.158,-107.964 -129.287,-100.682 -126.969,-90.751C-124.652,-80.822 -99.572,-1.074 -99.572,-1.074C-99.572,-1.074 -98.537,-0.495 -97.42,-0.412C-96.303,-0.33 -87.156,0 -87.156,0L-83.559,-3.681L-103.59,-74.865L-21.83,-79.003C1.105,-82.699 4.217,-110.626 0,-123.535" style="fill:rgb(24,29,59);"/>
        </g>
        <g transform="matrix(1,0,0,1,536.836,224.264)">
            <path d="M0,80.354C0,80.354 8.938,86.975 14.316,84.822C19.695,82.67 45.514,38.066 45.514,38.066L33.102,-6.621C33.102,-6.621 24.826,-6.29 14.979,-4.137L13.115,-2.441C13.115,-2.441 5.836,-1.201 1.697,3.433C-2.441,8.067 -16.012,20.149 -16.51,21.141C-17.006,22.135 -4.676,35.706 -1.529,37.858C-1.529,37.858 -0.041,38.354 0.869,37.444L2.361,36.243C2.361,36.243 5.672,53.479 5.672,58.587L5.672,63.693C5.672,63.693 3.934,76.874 2.611,78.116C1.287,79.357 0,80.354 0,80.354" style="fill:rgb(214,76,71);"/>
        </g>
        <g transform="matrix(1,0,0,1,576.793,292.717)">
            <path d="M0,20.396C2.072,20.396 3.754,18.716 3.754,16.644C3.754,14.571 2.072,12.89 0,12.89L-33.102,12.89C-37.617,12.89 -41.727,11.041 -44.707,8.059C-46.885,5.88 -48.461,3.1 -49.15,0C-51.342,0.868 -53.707,2.047 -56.031,3.334C-54.875,7.167 -52.779,10.601 -50.014,13.366C-45.676,17.704 -39.689,20.396 -33.102,20.396L0,20.396Z" style="fill:white;"/>
        </g>
        <g transform="matrix(1,0,0,1,0,263.949)">
            <rect x="576.996" y="78.903" width="9.512" height="78.245" style="fill:rgb(7,7,37);"/>
        </g>
        <g transform="matrix(1,0,0,1,0,154.319)">
            <rect x="564.375" y="162.248" width="9.268" height="21.185" style="fill:rgb(0,0,15);"/>
        </g>
        <g transform="matrix(1,0,0,1,0,154.319)">
            <rect x="628.426" y="162.248" width="9.268" height="21.185" style="fill:rgb(0,0,15);"/>
        </g>
        <g transform="matrix(1,0,0,1,576.998,340.989)">
            <path d="M0,21.185L9.51,21.185C12.537,21.185 15.016,18.706 15.016,15.678L15.016,5.505C15.016,2.477 12.537,0 9.51,0L0,0C-3.027,0 -5.506,2.477 -5.506,5.505L-5.506,15.678C-5.506,18.706 -3.027,21.185 0,21.185" style="fill:rgb(59,64,95);"/>
        </g>
        <g transform="matrix(1,0,0,1,569.428,339.347)">
            <path d="M0,15.95L24.648,15.95C25.518,15.95 26.227,15.239 26.227,14.371L26.227,1.578C26.227,0.71 25.518,0 24.648,0L0,0C-0.867,0 -1.576,0.71 -1.576,1.578L-1.576,14.371C-1.576,15.239 -0.867,15.95 0,15.95" style="fill:rgb(7,7,37);"/>
        </g>
        <g transform="matrix(1,0,0,1,508.766,349.837)">
            <path d="M0,-16.551L77.125,-16.551C80.039,-16.551 82.42,-14.168 82.42,-11.255L82.42,-5.296C82.42,-2.383 80.039,0 77.125,0L0,0C-2.914,0 -5.297,-2.383 -5.297,-5.296L-5.297,-11.255C-5.297,-14.168 -2.914,-16.551 0,-16.551" style="fill:rgb(241,138,0);"/>
        </g>
        <g transform="matrix(1,0,0,1,564.869,349.837)">
            <path d="M0,-16.551L77.125,-16.551C80.037,-16.551 82.422,-14.168 82.422,-11.255L82.422,-5.296C82.422,-2.383 80.037,0 77.125,0L0,0C-2.914,0 -5.297,-2.383 -5.297,-5.296L-5.297,-11.255C-5.297,-14.168 -2.914,-16.551 0,-16.551" style="fill:rgb(252,193,0);"/>
        </g>
        <g transform="matrix(1,0,0,1,576.998,437.181)">
            <path d="M0,-21.184L9.51,-21.184C12.537,-21.184 15.016,-18.707 15.016,-15.678L15.016,-5.505C15.016,-2.477 12.537,0 9.51,0L0,0C-3.027,0 -5.506,-2.477 -5.506,-5.505L-5.506,-15.678C-5.506,-18.707 -3.027,-21.184 0,-21.184" style="fill:rgb(59,64,95);"/>
        </g>
        <g transform="matrix(1,0,0,1,570.129,449.117)">
            <path d="M0,-23.03L23.246,-23.03C24.498,-23.03 25.525,-22.007 25.525,-20.751L25.525,-2.277C25.525,-1.024 24.498,0 23.246,0L0,0C-1.252,0 -2.277,-1.024 -2.277,-2.277L-2.277,-20.751C-2.277,-22.007 -1.252,-23.03 0,-23.03" style="fill:rgb(7,7,37);"/>
        </g>
        <g transform="matrix(1,0,0,1,606.992,443.472)">
            <path d="M0,0.001C0,3.755 -3.072,6.827 -6.826,6.827L-43.652,6.827C-47.408,6.827 -50.479,3.755 -50.479,0.001C-50.479,-3.754 -47.408,-6.826 -43.652,-6.826L-6.826,-6.826C-3.072,-6.826 0,-3.754 0,0.001" style="fill:rgb(112,115,134);"/>
        </g>
        <g transform="matrix(1,0,0,1,642.824,450.3)">
            <path d="M0,-0.001C0,3.753 -3.074,6.826 -6.826,6.826L-100.42,6.826C-104.176,6.826 -107.248,3.753 -107.248,-0.001C-107.248,-3.757 -104.176,-6.827 -100.42,-6.827L-6.826,-6.827C-3.074,-6.827 0,-3.757 0,-0.001" style="fill:rgb(16,21,55);"/>
        </g>
        <g transform="matrix(1,0,0,1,584.236,450.3)">
            <path d="M0,-0.001C0,3.753 -3.072,6.826 -6.828,6.826L-56.729,6.826C-60.484,6.826 -63.557,3.753 -63.557,-0.001C-63.557,-3.757 -60.484,-6.827 -56.729,-6.827L-6.828,-6.827C-3.072,-6.827 0,-3.757 0,-0.001" style="fill:rgb(0,0,15);"/>
        </g>
        <g transform="matrix(1,0,0,1,562.891,345.487)">
            <path d="M0,-57.53C2.072,-57.53 3.754,-55.849 3.754,-53.777C3.754,-51.704 2.072,-50.023 0,-50.023L-33.1,-50.023C-37.617,-50.023 -41.727,-48.173 -44.707,-45.191C-47.688,-42.212 -49.541,-38.101 -49.541,-33.585L-49.541,-3.753C-49.541,-1.68 -51.221,0 -53.293,0C-55.365,0 -57.047,-1.68 -57.047,-3.753L-57.047,-33.585C-57.047,-40.172 -54.354,-46.16 -50.014,-50.499C-45.676,-54.837 -39.689,-57.53 -33.1,-57.53L0,-57.53Z" style="fill:white;"/>
        </g>
        <g transform="matrix(1,0,0,1,636.367,278.584)">
            <path d="M0,-30.614C0,-53.235 -18.508,-71.744 -41.131,-71.744L-46.588,-71.744C-69.211,-71.744 -87.719,-53.235 -87.719,-30.614L-87.719,30.559C-87.719,36.372 -82.961,41.13 -77.146,41.13L-10.572,41.13C-4.758,41.13 0,36.372 0,30.559L0,-30.614Z" style="fill:rgb(241,138,0);"/>
        </g>
        <g transform="matrix(1,0,0,1,647.291,278.584)">
            <path d="M0,-30.614C0,-53.235 -18.508,-71.744 -41.131,-71.744L-46.588,-71.744C-69.211,-71.744 -87.719,-53.235 -87.719,-30.614L-87.719,30.559C-87.719,36.372 -82.961,41.13 -77.146,41.13L-10.572,41.13C-4.758,41.13 0,36.372 0,30.559L0,-30.614Z" style="fill:rgb(252,193,0);"/>
        </g>
        <g transform="matrix(1,0,0,1,531.135,447.446)">
            <path d="M0,-34.355C0,-34.355 1.432,-34.34 2.342,-33.141C3.252,-31.94 6.48,-23.666 6.646,-22.424C6.811,-21.183 3.336,-18.039 -3.035,-14.481C-9.408,-10.923 -34.275,0 -34.275,0L-34.73,-0.662C-34.73,-0.662 -36.055,-0.829 -36.84,-1.945C-37.627,-3.061 -38.082,-5.792 -37.006,-7.613C-35.932,-9.433 -28.484,-15.474 -27.16,-16.716C-25.834,-17.959 -20.041,-27.515 -19.545,-28.177C-19.049,-28.839 -15.449,-31.571 -10.193,-30.496C-4.939,-29.419 0.316,-31.199 0,-34.355" style="fill:rgb(214,76,71);"/>
        </g>
        <g transform="matrix(1,0,0,1,496.404,427.898)">
            <path d="M0,18.886C0,18.886 24.455,6.511 29.834,3.864C35.213,1.216 40.998,-4.217 40.998,-4.217C40.998,-4.217 41.998,-4.08 42.33,-3.543C42.66,-3.004 43.281,-1.019 43.447,-0.605C43.611,-0.19 43.861,1.752 41.211,3.242C38.564,4.732 4.303,21.615 2.732,22.359C1.158,23.103 -0.289,19.897 -0.289,19.897C-0.289,19.897 -0.557,19.203 0,18.886" style="fill:white;"/>
        </g>
        <g transform="matrix(1,0,0,1,543.086,213.597)">
            <path d="M0,-52.573L3.975,-53.504C13.463,-55.723 23.041,-49.776 25.262,-40.287L29.707,-21.29C31.926,-11.801 25.979,-2.219 16.488,-0L12.518,0.929C3.027,3.15 -6.553,-2.799 -8.773,-12.287L-13.217,-31.285C-15.436,-40.774 -9.488,-50.353 0,-52.573" style="fill:rgb(245,172,131);"/>
        </g>
        <g transform="matrix(1,0,0,1,568.857,209.581)">
            <path d="M0,-34.091L3.936,-17.274C6.154,-7.784 0.207,1.797 -9.283,4.016L-13.254,4.945C-17.189,5.866 -21.139,5.381 -24.572,3.823C-24.104,4.02 -20.734,5.332 -19.984,2.853C-19.176,0.187 -23.779,-8.375 -23.779,-8.375C-23.779,-8.375 -24.084,-8.942 -23.699,-9.466C-23.316,-9.991 -20.68,-14.695 -21.824,-20.403C-22.973,-26.107 -15.596,-30.085 -15.596,-30.085L-32.666,-25.461L-32.666,-21.987C-32.666,-21.987 -34.518,-25.855 -38.762,-26.298L-38.988,-27.269C-40.033,-31.737 -39.268,-36.226 -37.172,-39.957C-31.506,-39.266 -12.963,-36.903 0,-34.091" style="fill:rgb(237,120,98);"/>
        </g>
        <g transform="matrix(1,0,0,1,537.33,166.625)">
            <path d="M0,26.297C0,26.297 -1.547,26.131 -2.059,23.95C-2.568,21.769 -2.734,21.053 -2.734,21.053C-2.734,21.053 -4.377,18.872 -5.355,14.689C-5.355,14.689 -15.453,13.278 -17.414,3.929C-19.375,-5.419 -10.674,-15.3 -9.393,-16.278C-8.113,-17.257 -2.74,-19.117 4.002,-16.093C4.002,-16.093 5.148,-15.38 7.355,-16.272C9.561,-17.166 21.943,-20.667 27.932,-20.861C33.922,-21.056 37.783,-14.868 40.592,-7.377C40.592,-7.377 40.939,-10.402 43.961,-11.033C46.98,-11.664 45.363,-6.004 43.178,-4.06C43.178,-4.06 48.324,-1.416 49.309,4.086C50.293,9.589 48.43,33.863 43.83,38.71C39.23,43.559 27.631,45.623 23.934,46.487C20.238,47.353 12.898,43.533 9.916,33.367C9.916,33.367 11.375,28.311 10.174,24.142C8.971,19.972 7.877,16.908 6.316,16.368C4.758,15.828 0.91,19.859 0.58,21.671C0.25,23.484 0.979,25.953 0.979,25.953C0.979,25.953 0.557,26.335 0,26.297" style="fill:rgb(16,21,55);"/>
        </g>
        <g transform="matrix(1,0,0,1,537.33,171.403)">
            <path d="M0,21.519C0,21.519 -1.547,21.353 -2.059,19.172C-2.568,16.991 -2.734,16.275 -2.734,16.275C-2.734,16.275 -4.375,14.094 -5.355,9.91C-5.355,9.91 -15.453,8.5 -17.414,-0.849C-19.375,-10.197 -10.674,-20.078 -9.393,-21.056C-9.393,-21.056 -18.912,-10.669 -8.41,-5.335C2.092,-0.004 17.602,3.388 27.779,2.742C37.955,2.096 45.188,-15.563 45.191,-15.574C46.359,-14.462 44.957,-10.42 43.178,-8.838C43.178,-8.838 48.324,-6.194 49.309,-0.692C50.293,4.811 48.43,29.085 43.83,33.932C39.23,38.78 27.631,40.845 23.934,41.709C20.24,42.575 12.896,38.755 9.916,28.589C9.916,28.589 11.373,23.533 10.174,19.364C8.971,15.194 7.877,12.13 6.318,11.59C4.756,11.05 0.91,15.081 0.58,16.893C0.25,18.705 0.979,21.175 0.979,21.175C0.979,21.175 0.557,21.556 0,21.519" style="fill:rgb(7,7,37);"/>
        </g>
        <g transform="matrix(1,0,0,1,677.229,355.653)">
            <path d="M0,-7.65C0,-8.282 -0.512,-8.793 -1.143,-8.793C-1.771,-8.793 -2.283,-8.282 -2.283,-7.65L-2.283,-4.966L-4.969,-4.966C-5.598,-4.966 -6.109,-4.456 -6.109,-3.826C-6.109,-3.194 -5.598,-2.684 -4.969,-2.684L-2.283,-2.684L-2.283,-0.001C-2.283,0.631 -1.771,1.143 -1.143,1.143C-0.512,1.143 0,0.631 0,-0.001L0,-2.684L2.684,-2.684C3.313,-2.684 3.826,-3.194 3.826,-3.826C3.826,-4.456 3.313,-4.966 2.684,-4.966L0,-4.966L0,-7.65Z" style="fill:rgb(159,178,217);"/>
        </g>
        <g transform="matrix(1,0,0,1,608.727,119.129)">
            <path d="M0,-7.651C0,-8.281 -0.512,-8.793 -1.143,-8.793C-1.771,-8.793 -2.283,-8.281 -2.283,-7.651L-2.283,-4.966L-4.967,-4.966C-5.598,-4.966 -6.107,-4.456 -6.107,-3.825C-6.107,-3.195 -5.598,-2.684 -4.967,-2.684L-2.283,-2.684L-2.283,0C-2.283,0.631 -1.771,1.142 -1.143,1.142C-0.512,1.142 0,0.631 0,0L0,-2.684L2.684,-2.684C3.314,-2.684 3.826,-3.195 3.826,-3.825C3.826,-4.456 3.314,-4.966 2.684,-4.966L0,-4.966L0,-7.651Z" style="fill:rgb(159,178,217);"/>
        </g>
        <g transform="matrix(1,0,0,1,479.477,76.4772)">
            <path d="M0,-7.652C0,-8.281 -0.51,-8.793 -1.141,-8.793C-1.77,-8.793 -2.281,-8.281 -2.281,-7.652L-2.281,-4.967L-4.965,-4.967C-5.596,-4.967 -6.107,-4.457 -6.107,-3.826C-6.107,-3.195 -5.596,-2.684 -4.965,-2.684L-2.281,-2.684L-2.281,0C-2.281,0.63 -1.77,1.141 -1.141,1.141C-0.51,1.141 0,0.63 0,0L0,-2.684L2.686,-2.684C3.316,-2.684 3.826,-3.195 3.826,-3.826C3.826,-4.457 3.316,-4.967 2.686,-4.967L0,-4.967L0,-7.652Z" style="fill:rgb(159,178,217);"/>
        </g>
        <g transform="matrix(1,0,0,1,160.235,303.955)">
            <path d="M0,-7.652C0,-8.282 -0.511,-8.793 -1.142,-8.793C-1.772,-8.793 -2.284,-8.282 -2.284,-7.652L-2.284,-4.968L-4.968,-4.968C-5.599,-4.968 -6.109,-4.456 -6.109,-3.827C-6.109,-3.196 -5.599,-2.684 -4.968,-2.684L-2.284,-2.684L-2.284,0C-2.284,0.629 -1.772,1.141 -1.142,1.141C-0.511,1.141 0,0.629 0,0L0,-2.684L2.684,-2.684C3.314,-2.684 3.825,-3.196 3.825,-3.827C3.825,-4.456 3.314,-4.968 2.684,-4.968L0,-4.968L0,-7.652Z" style="fill:rgb(159,178,217);"/>
        </g>
        <g transform="matrix(1,0,0,1,271.389,156.612)">
            <path d="M0,-7.653C0,-8.283 -0.511,-8.794 -1.142,-8.794C-1.772,-8.794 -2.284,-8.283 -2.284,-7.653L-2.284,-4.967L-4.967,-4.967C-5.598,-4.967 -6.108,-4.458 -6.108,-3.827C-6.108,-3.197 -5.598,-2.685 -4.967,-2.685L-2.284,-2.685L-2.284,-0.002C-2.284,0.629 -1.772,1.141 -1.142,1.141C-0.511,1.141 0,0.629 0,-0.002L0,-2.685L2.684,-2.685C3.314,-2.685 3.826,-3.197 3.826,-3.827C3.826,-4.458 3.314,-4.967 2.684,-4.967L0,-4.967L0,-7.653Z" style="fill:rgb(159,178,217);"/>
        </g>
        <g transform="matrix(1,0,0,1,140.848,412.523)">
            <path d="M0,-7.652C0,-8.281 -0.511,-8.793 -1.142,-8.793C-1.772,-8.793 -2.282,-8.281 -2.282,-7.652L-2.282,-4.968L-4.967,-4.968C-5.598,-4.968 -6.108,-4.457 -6.108,-3.826C-6.108,-3.196 -5.598,-2.684 -4.967,-2.684L-2.282,-2.684L-2.282,0C-2.282,0.63 -1.772,1.141 -1.142,1.141C-0.511,1.141 0,0.63 0,0L0,-2.684L2.684,-2.684C3.315,-2.684 3.826,-3.196 3.826,-3.826C3.826,-4.457 3.315,-4.968 2.684,-4.968L0,-4.968L0,-7.652Z" style="fill:rgb(159,178,217);"/>
        </g>
        <g transform="matrix(1,0,0,1,38.7417,329.804)">
            <path d="M0,-7.652C0,-8.282 -0.511,-8.793 -1.142,-8.793C-1.772,-8.793 -2.283,-8.282 -2.283,-7.652L-2.283,-4.967L-4.967,-4.967C-5.598,-4.967 -6.108,-4.456 -6.108,-3.827C-6.108,-3.195 -5.598,-2.684 -4.967,-2.684L-2.283,-2.684L-2.283,-0.001C-2.283,0.63 -1.772,1.141 -1.142,1.141C-0.511,1.141 0,0.63 0,-0.001L0,-2.684L2.684,-2.684C3.314,-2.684 3.826,-3.195 3.826,-3.827C3.826,-4.456 3.314,-4.967 2.684,-4.967L0,-4.967L0,-7.652Z" style="fill:rgb(159,178,217);"/>
        </g>
        <g transform="matrix(-0.974432,-0.224685,-0.224685,0.974432,287.17,427.862)">
            <path d="M-2.844,-113.599C-16.676,-125.613 -24.882,-108.305 -22.233,-91.794C-19.583,-75.287 0.158,-17.262 -2.844,3.254C-4.006,11.205 -2.355,10.689 0.152,5.504C12.66,-20.362 16.198,-97.062 -2.844,-113.599" style="fill:rgb(41,77,60);"/>
        </g>
        <g transform="matrix(-0.99984,-0.01787,-0.01787,0.99984,275.228,400.053)">
            <path d="M-3.243,-153.31C15.603,-169.678 26.782,-146.096 23.172,-123.604C19.563,-101.112 -7.331,-22.056 -3.243,5.895C-1.658,16.728 -3.909,16.025 -7.325,8.959C-24.366,-26.28 -29.186,-130.779 -3.243,-153.31" style="fill:rgb(74,144,117);"/>
        </g>
        <g transform="matrix(1,0,0,1,277.978,251.825)">
            <path d="M0,161.924C0.397,162.96 1.278,162.447 2.46,160.723C21.793,96.321 -8.324,0.1 -8.419,-0.209C-8.583,-0.739 -9.146,-1.036 -9.675,-0.872C-10.206,-0.709 -10.503,-0.146 -10.339,0.384C-10.244,0.695 20.284,98.229 0,161.924" style="fill:rgb(27,113,84);"/>
        </g>
        <g transform="matrix(-0.953964,0.299921,0.299921,0.953964,283.057,413.775)">
            <path d="M6.39,-120.924C21.191,-133.78 29.97,-115.258 27.136,-97.594C24.302,-79.93 3.18,-17.842 6.39,4.109C7.635,12.618 5.868,12.066 3.185,6.517C-10.198,-21.159 -13.984,-103.229 6.39,-120.924" style="fill:rgb(166,200,107);"/>
        </g>
        <g transform="matrix(1,0,0,1,279.832,307.041)">
            <path d="M0,118.437C0.553,119.11 1.082,118.506 1.533,116.929C-0.094,64.146 -46.477,-0.032 -46.625,-0.24C-46.878,-0.593 -47.372,-0.673 -47.726,-0.419C-48.08,-0.167 -48.161,0.326 -47.908,0.681C-47.759,0.888 -0.744,65.942 0,118.437" style="fill:rgb(95,152,80);"/>
        </g>
        <g transform="matrix(1,0,0,1,266.004,450.299)">
            <path d="M0,-36.508L34.532,-36.508L43.547,-28.371L36.182,0L-1.652,0L-9.016,-28.371L0,-36.508Z" style="fill:rgb(59,64,95);"/>
        </g>
        <g transform="matrix(1,0,0,1,256.988,421.927)">
            <path d="M0,-18.693L52.563,-18.693C54.135,-18.693 55.421,-17.408 55.421,-15.836L55.421,-2.858C55.421,-1.287 54.135,0 52.563,0L0,0C-1.572,0 -2.859,-1.287 -2.859,-2.858L-2.859,-15.836C-2.859,-17.408 -1.572,-18.693 0,-18.693" style="fill:rgb(59,64,95);"/>
        </g>
        <g transform="matrix(-0.251314,0.967906,0.967906,0.251314,279.487,451.014)">
            <path d="M-35.708,21.79L-29.684,21.79L-17.235,-26.156L-22.499,-29.086L-35.708,21.79Z" style="fill:rgb(16,21,55);"/>
        </g>
    </g>
    <g transform="matrix(1,0,0,1,375.238,475.385)">
        <g id="DESIGNED-BY-FREEPIK" serif:id="DESIGNED BY FREEPIK">
            <path d="M0,8.479L-2.358,2.678L-3.545,2.678L-0.586,9.827L-1.055,10.896C-1.304,11.482 -1.626,11.643 -2.109,11.643C-2.285,11.643 -2.549,11.599 -2.71,11.526L-2.886,12.521C-2.681,12.581 -2.314,12.625 -2.08,12.625C-1.143,12.61 -0.425,12.213 0,11.189L3.545,2.678L2.344,2.678L0,8.479ZM-5.054,6.223C-5.054,4.656 -5.903,3.484 -7.339,3.484C-8.203,3.484 -9.067,4.011 -9.448,4.626L-9.448,7.834C-9.067,8.45 -8.203,8.948 -7.339,8.948C-5.903,8.948 -5.054,7.791 -5.054,6.223M-3.911,6.223C-3.911,8.523 -5.215,9.929 -7.061,9.929C-8.057,9.929 -8.921,9.416 -9.448,8.699L-9.448,9.753L-10.547,9.753L-10.547,-0.017L-9.448,-0.017L-9.448,3.748C-8.877,2.971 -8.027,2.502 -7.061,2.502C-5.215,2.502 -3.911,3.967 -3.911,6.223M-16.889,4.626C-17.284,4.011 -18.134,3.484 -19.013,3.484C-20.434,3.484 -21.283,4.656 -21.283,6.223C-21.283,7.791 -20.434,8.948 -19.013,8.948C-18.134,8.948 -17.284,8.45 -16.889,7.834L-16.889,4.626ZM-16.889,-0.017L-15.79,-0.017L-15.79,9.753L-16.889,9.753L-16.889,8.699C-17.416,9.416 -18.28,9.929 -19.276,9.929C-21.122,9.929 -22.426,8.523 -22.426,6.223C-22.426,3.967 -21.137,2.502 -19.276,2.502C-18.324,2.502 -17.46,2.971 -16.889,3.748L-16.889,-0.017ZM-24.506,5.769C-24.521,4.714 -25.224,3.411 -26.835,3.411C-28.344,3.411 -29.091,4.685 -29.148,5.769L-24.506,5.769ZM-23.422,6.296L-23.422,6.575L-29.148,6.575C-29.061,7.908 -28.124,9.021 -26.601,9.021C-25.795,9.021 -24.975,8.699 -24.418,8.127L-23.891,8.845C-24.594,9.548 -25.546,9.929 -26.703,9.929C-28.797,9.929 -30.307,8.42 -30.307,6.208C-30.307,4.158 -28.842,2.502 -26.82,2.502C-24.682,2.502 -23.422,4.172 -23.422,6.296M-33.982,2.502C-35.037,2.502 -36.004,3.118 -36.502,3.704L-36.502,2.678L-37.601,2.678L-37.601,9.753L-36.502,9.753L-36.502,4.583C-36.092,4.011 -35.271,3.484 -34.407,3.484C-33.455,3.484 -32.825,3.879 -32.825,5.125L-32.825,9.753L-31.727,9.753L-31.727,4.788C-31.727,3.25 -32.503,2.502 -33.982,2.502M-40.53,4.626C-40.911,4.011 -41.761,3.484 -42.64,3.484C-44.061,3.484 -44.909,4.612 -44.909,6.179C-44.909,7.732 -44.061,8.875 -42.64,8.875C-41.761,8.875 -40.911,8.333 -40.53,7.717L-40.53,4.626ZM-40.53,2.678L-39.432,2.678L-39.432,9.548C-39.432,11.892 -41.072,12.625 -42.801,12.625C-44.002,12.625 -44.822,12.389 -45.656,11.57L-45.101,10.75C-44.515,11.453 -43.812,11.716 -42.801,11.716C-41.629,11.716 -40.53,11.145 -40.53,9.592L-40.53,8.582C-41.043,9.299 -41.907,9.841 -42.903,9.841C-44.749,9.841 -46.053,8.464 -46.053,6.179C-46.053,3.909 -44.764,2.502 -42.903,2.502C-41.951,2.502 -41.102,2.971 -40.53,3.748L-40.53,2.678ZM-48.571,9.753L-47.472,9.753L-47.472,2.678L-48.571,2.678L-48.571,9.753ZM-48.029,0.188C-48.425,0.188 -48.762,0.525 -48.762,0.935C-48.762,1.345 -48.425,1.667 -48.029,1.667C-47.619,1.667 -47.282,1.345 -47.282,0.935C-47.282,0.525 -47.619,0.188 -48.029,0.188M-54.372,4.509C-54.372,3.879 -53.771,3.396 -52.805,3.396C-51.896,3.396 -51.12,3.777 -50.695,4.29L-50.183,3.528C-50.754,2.957 -51.604,2.502 -52.805,2.502C-54.489,2.502 -55.441,3.44 -55.441,4.539C-55.441,7.161 -51.062,6.106 -51.062,7.82C-51.062,8.523 -51.647,9.036 -52.731,9.036C-53.698,9.036 -54.592,8.567 -55.061,8.025L-55.632,8.816C-54.914,9.578 -53.933,9.929 -52.775,9.929C-50.944,9.929 -49.992,8.977 -49.992,7.791C-49.992,5.037 -54.372,6.062 -54.372,4.509M-57.506,5.769C-57.521,4.714 -58.224,3.411 -59.835,3.411C-61.344,3.411 -62.091,4.685 -62.149,5.769L-57.506,5.769ZM-56.423,6.296L-56.423,6.575L-62.149,6.575C-62.062,7.908 -61.124,9.021 -59.601,9.021C-58.795,9.021 -57.975,8.699 -57.419,8.127L-56.892,8.845C-57.595,9.548 -58.546,9.929 -59.703,9.929C-61.798,9.929 -63.307,8.42 -63.307,6.208C-63.307,4.158 -61.842,2.502 -59.82,2.502C-57.682,2.502 -56.423,4.172 -56.423,6.296M-65.826,4.626C-66.222,4.011 -67.071,3.484 -67.95,3.484C-69.371,3.484 -70.221,4.656 -70.221,6.223C-70.221,7.791 -69.371,8.948 -67.95,8.948C-67.071,8.948 -66.222,8.45 -65.826,7.834L-65.826,4.626ZM-65.826,-0.017L-64.728,-0.017L-64.728,9.753L-65.826,9.753L-65.826,8.699C-66.354,9.416 -67.218,9.929 -68.214,9.929C-70.06,9.929 -71.363,8.523 -71.363,6.223C-71.363,3.967 -70.074,2.502 -68.214,2.502C-67.262,2.502 -66.397,2.971 -65.826,3.748L-65.826,-0.017ZM67.385,6.021L70.863,2.646L68.496,2.646L65.793,5.2L65.793,-0.84L63.861,-0.84L63.861,9.818L65.793,9.818L65.793,6.917L68.51,9.818L70.887,9.818L67.385,6.021ZM60.639,9.818L62.571,9.818L62.571,2.646L60.639,2.646L60.639,9.818ZM61.594,-0.944C60.896,-0.944 60.365,-0.396 60.365,0.299C60.365,0.996 60.896,1.529 61.594,1.529C62.289,1.529 62.83,0.996 62.83,0.299C62.83,-0.396 62.289,-0.944 61.594,-0.944M57.742,6.228C57.742,5.133 57.031,4.252 55.893,4.252C54.797,4.252 54.049,5.096 54.049,6.228C54.049,7.361 54.797,8.205 55.893,8.205C57.031,8.205 57.742,7.324 57.742,6.228M59.727,6.228C59.727,8.382 58.23,10.003 56.254,10.003C55.293,10.003 54.611,9.625 54.145,9.071L54.145,12.779L52.221,12.779L52.221,2.646L54.107,2.646L54.107,3.438C54.574,2.853 55.262,2.454 56.246,2.454C58.23,2.454 59.727,4.075 59.727,6.228M49.441,5.555C49.264,4.637 48.707,4.119 47.879,4.119C46.969,4.119 46.436,4.666 46.266,5.555L49.441,5.555ZM51.381,6.221C51.381,6.443 51.365,6.709 51.344,6.873L46.258,6.873C46.465,7.909 47.191,8.36 48.102,8.36C48.723,8.36 49.396,8.108 49.914,7.671L51.047,8.915C50.232,9.663 49.197,10.003 47.99,10.003C45.791,10.003 44.268,8.507 44.268,6.25C44.268,3.993 45.748,2.454 47.895,2.454C49.959,2.454 51.373,3.986 51.381,6.221M41.787,5.555C41.609,4.637 41.055,4.119 40.227,4.119C39.316,4.119 38.783,4.666 38.613,5.555L41.787,5.555ZM43.727,6.221C43.727,6.443 43.711,6.709 43.689,6.873L38.605,6.873C38.813,7.909 39.537,8.36 40.447,8.36C41.07,8.36 41.742,8.108 42.262,7.671L43.395,8.915C42.58,9.663 41.543,10.003 40.338,10.003C38.139,10.003 36.613,8.507 36.613,6.25C36.613,3.993 38.094,2.454 40.24,2.454C42.305,2.454 43.719,3.986 43.727,6.221M35.984,2.454C35.104,2.454 34.416,2.757 33.965,3.43L33.965,2.646L32.092,2.646L32.092,9.818L34.023,9.818L34.023,5.91C34.023,4.844 34.639,4.296 35.533,4.296C35.701,4.296 35.883,4.313 36.059,4.342L37.08,2.791C36.832,2.582 36.398,2.454 35.984,2.454M29.131,1.78C29.131,1.114 29.424,0.842 29.975,0.773C30.551,0.702 31.062,0.895 31.357,1.011L31.357,-0.717C30.924,-0.904 30.41,-1.025 29.768,-1.025C28.094,-1.025 27.199,0.078 27.199,1.757L27.199,2.646L25.859,2.646L25.859,4.363L27.199,4.363L27.199,9.818L29.131,9.818L29.131,4.363L31.359,4.363L31.359,2.646L29.131,2.646L29.131,1.78ZM19.291,3.39C19.291,2.64 18.682,2.03 17.932,2.03C17.182,2.03 16.57,2.64 16.57,3.39C16.57,4.14 17.182,4.75 17.932,4.75C18.682,4.75 19.291,4.14 19.291,3.39M15.043,3.809C15.043,2.789 14.213,1.958 13.193,1.958C12.174,1.958 11.344,2.789 11.344,3.809C11.344,4.829 12.174,5.659 13.193,5.659C14.213,5.659 15.043,4.829 15.043,3.809M21.385,4.339C21.41,4.531 21.426,4.726 21.43,4.92C20.055,6.122 17.639,6.906 14.758,7.08C12.117,7.239 10.084,6.832 9.41,6.348C9.32,5.936 9.273,5.512 9.273,5.087C9.273,1.81 12.002,-0.856 15.354,-0.856C18.412,-0.856 21.006,1.377 21.385,4.339M14.807,7.835C14.42,7.859 14.031,7.871 13.648,7.871C12.77,7.871 11.916,7.81 11.17,7.691C10.779,7.629 10.324,7.537 9.9,7.399C10.947,9.26 12.969,10.524 15.289,10.524C18.145,10.524 20.551,8.608 21.238,6.021C20.557,6.47 19.732,6.846 18.779,7.143C17.6,7.511 16.225,7.75 14.807,7.835M21.809,-1.023C21.5,-0.985 21.273,-0.719 21.279,-0.415L20.863,-0.051C20.445,-0.481 19.973,-0.864 19.455,-1.191L19.051,-0.549C20.186,0.166 21.072,1.177 21.615,2.375L22.305,2.063C22.055,1.509 21.738,0.992 21.363,0.518L21.766,0.167C21.826,0.179 21.891,0.183 21.955,0.174C22.287,0.134 22.521,-0.167 22.48,-0.498C22.441,-0.829 22.141,-1.064 21.809,-1.023M12.357,-0.941C13.293,-1.388 14.299,-1.615 15.354,-1.615C15.85,-1.615 16.346,-1.562 16.828,-1.457L16.988,-2.198C16.453,-2.314 15.904,-2.373 15.354,-2.373C15.182,-2.373 15.012,-2.367 14.844,-2.356L14.77,-2.982C14.957,-3.131 15.066,-3.371 15.035,-3.626C14.99,-4.019 14.633,-4.3 14.24,-4.254C13.848,-4.209 13.566,-3.852 13.613,-3.459C13.643,-3.205 13.803,-2.998 14.018,-2.895L14.09,-2.271C13.377,-2.155 12.688,-1.939 12.031,-1.625L12.357,-0.941ZM10.408,0.458C9.467,1.424 8.846,2.625 8.617,3.931L7.869,3.799C7.977,3.195 8.158,2.61 8.408,2.056L7.957,1.822C7.9,1.848 7.84,1.867 7.773,1.874C7.443,1.913 7.143,1.676 7.104,1.345C7.066,1.014 7.303,0.714 7.633,0.675C7.943,0.639 8.225,0.844 8.293,1.141L8.758,1.382C9.063,0.861 9.434,0.373 9.865,-0.071L10.408,0.458Z" style="fill:rgb(28,38,45);fill-rule:nonzero;"/>
        </g>
    </g>
</svg>
