<svg xmlns="http://www.w3.org/2000/svg" width="32" height="32" viewBox="0 0 32 32"><g fill="none" fill-rule="evenodd"><rect width="29" height="24" y="4" fill="#FFF"/><path fill="#191919" d="M25,0 C28.8659932,-7.10171439e-16 32,3.13400675 32,7 L32,25 C32,28.8659932 28.8659932,32 25,32 L6.31201566,32 C3.51990943,32 1.10961096,30.3652866 -0.0140034442,28.0007361 L5.46414101,28 L5.46414101,13.5726496 L11.1485609,28 L16.113434,28 L21.7618766,13.6068376 L21.7618766,28 L27.914002,28 L27.914002,4 L20.6825564,4 L13.6669748,20.6153846 L6.57943859,4 L-0.0144800134,4.00026701 C1.10892932,1.63517574 3.51951461,5.1297412e-16 6.31201566,0 L25,0 Z"/></g></svg>