<svg xmlns="http://www.w3.org/2000/svg" width="32" height="32" viewBox="0 0 32 32"><g fill="none" fill-rule="evenodd"><rect width="29" height="24" x="2" y="4" fill="#FFF"/><path fill="#191919" d="M25,0 C28.8659932,-7.10171439e-16 32,3.13400675 32,7 L32,25 C32,28.8659932 28.8659932,32 25,32 L6.31201566,32 C2.44602241,32 -0.68798434,28.8659932 -0.68798434,25 L-0.68798434,7 C-0.68798434,3.13400675 2.44602241,7.10171439e-16 6.31201566,0 L25,0 Z M10.0981132,6 L4,6 L4,26 L9.16226415,26 L9.16226415,13.977208 L13.9320755,26 L18.0981132,26 L22.8377358,14.005698 L22.8377358,26 L28,26 L28,6 L21.9320755,6 L16.045283,19.8461538 L10.0981132,6 Z"/></g></svg>