<svg xmlns="http://www.w3.org/2000/svg" width="639" height="71" viewBox="0 0 639 71"><g transform="translate(.486 .44)"><polygon points="71.534 3.948 71.534 69.56 58.374 69.56 58.374 26.884 40.796 69.56 30.832 69.56 13.16 26.884 13.16 69.56 0 69.56 0 3.948 14.946 3.948 35.814 52.734 56.682 3.948"/><path d="M81.122 43.334C81.122 38.07 82.1716667 33.4013333 84.271 29.328 86.3703333 25.2546667 89.2216667 22.1213333 92.825 19.928 96.4283333 17.7346667 100.454667 16.638 104.904 16.638 108.789333 16.638 112.189 17.4213333 115.103 18.988 118.017 20.5546667 120.351333 22.5286667 122.106 24.91L122.106 17.484 135.36 17.484 135.36 69.56 122.106 69.56 122.106 61.946C120.414 64.39 118.079667 66.411 115.103 68.009 112.126333 69.607 108.695333 70.406 104.81 70.406 100.423333 70.406 96.4283333 69.278 92.825 67.022 89.2216667 64.766 86.3703333 61.5856667 84.271 57.481 82.1716667 53.3763333 81.122 48.6606667 81.122 43.334ZM122.106 43.522C122.106 40.326 121.479333 37.5843333 120.226 35.297 118.972667 33.0096667 117.280667 31.255 115.15 30.033 113.019333 28.811 110.732 28.2 108.288 28.2 105.844 28.2 103.588 28.7953333 101.52 29.986 99.452 31.1766667 97.7756667 32.9156667 96.491 35.203 95.2063333 37.4903333 94.564 40.2006667 94.564 43.334 94.564 46.4673333 95.2063333 49.209 96.491 51.559 97.7756667 53.909 99.4676667 55.7106667 101.567 56.964 103.666333 58.2173333 105.906667 58.844 108.288 58.844 110.732 58.844 113.019333 58.233 115.15 57.011 117.280667 55.789 118.972667 54.0343333 120.226 51.747 121.479333 49.4596667 122.106 46.718 122.106 43.522ZM177.096 16.732C183.3 16.732 188.313333 18.6903333 192.136 22.607 195.958667 26.5236667 197.87 31.9913333 197.87 39.01L197.87 69.56 184.71 69.56 184.71 40.796C184.71 36.66 183.676 33.4796667 181.608 31.255 179.54 29.0303333 176.72 27.918 173.148 27.918 169.513333 27.918 166.646333 29.0303333 164.547 31.255 162.447667 33.4796667 161.398 36.66 161.398 40.796L161.398 69.56 148.238 69.56 148.238 17.484 161.398 17.484 161.398 23.97C163.152667 21.714 165.393 19.9436667 168.119 18.659 170.845 17.3743333 173.837333 16.732 177.096 16.732ZM259.534 17.484 259.534 69.56 246.28 69.56 246.28 62.98C244.588 65.236 242.379 67.0063333 239.653 68.291 236.927 69.5756667 233.966 70.218 230.77 70.218 226.696667 70.218 223.093333 69.3563333 219.96 67.633 216.826667 65.9096667 214.367 63.3716667 212.581 60.019 210.795 56.6663333 209.902 52.6713333 209.902 48.034L209.902 17.484 223.062 17.484 223.062 46.154C223.062 50.29 224.096 53.4703333 226.164 55.695 228.232 57.9196667 231.052 59.032 234.624 59.032 238.258667 59.032 241.11 57.9196667 243.178 55.695 245.246 53.4703333 246.28 50.29 246.28 46.154L246.28 17.484 259.534 17.484ZM320.916 42.394C320.916 44.274 320.790667 45.966 320.54 47.47L282.47 47.47C282.783333 51.23 284.099333 54.1753333 286.418 56.306 288.736667 58.4366667 291.588 59.502 294.972 59.502 299.86 59.502 303.338 57.4026667 305.406 53.204L319.6 53.204C318.096 58.2173333 315.213333 62.3376667 310.952 65.565 306.690667 68.7923333 301.458 70.406 295.254 70.406 290.240667 70.406 285.744333 69.2936667 281.765 67.069 277.785667 64.8443333 274.683667 61.6953333 272.459 57.622 270.234333 53.5486667 269.122 48.8486667 269.122 43.522 269.122 38.1326667 270.218667 33.4013333 272.412 29.328 274.605333 25.2546667 277.676 22.1213333 281.624 19.928 285.572 17.7346667 290.115333 16.638 295.254 16.638 300.204667 16.638 304.638333 17.7033333 308.555 19.834 312.471667 21.9646667 315.511 24.9883333 317.673 28.905 319.835 32.8216667 320.916 37.318 320.916 42.394ZM307.286 38.634C307.223333 35.25 306.001333 32.5396667 303.62 30.503 301.238667 28.4663333 298.324667 27.448 294.878 27.448 291.619333 27.448 288.877667 28.435 286.653 30.409 284.428333 32.383 283.065333 35.1246667 282.564 38.634L307.286 38.634Z"/><polygon points="343.664 0 343.664 69.56 330.504 69.56 330.504 0"/><path d="M405.046,42.394 C405.046,44.274 404.920667,45.966 404.67,47.47 L366.6,47.47 C366.913333,51.23 368.229333,54.1753333 370.548,56.306 C372.866667,58.4366667 375.718,59.502 379.102,59.502 C383.99,59.502 387.468,57.4026667 389.536,53.204 L403.73,53.204 C402.226,58.2173333 399.343333,62.3376667 395.082,65.565 C390.820667,68.7923333 385.588,70.406 379.384,70.406 C374.370667,70.406 369.874333,69.2936667 365.895,67.069 C361.915667,64.8443333 358.813667,61.6953333 356.589,57.622 C354.364333,53.5486667 353.252,48.8486667 353.252,43.522 C353.252,38.1326667 354.348667,33.4013333 356.542,29.328 C358.735333,25.2546667 361.806,22.1213333 365.754,19.928 C369.702,17.7346667 374.245333,16.638 379.384,16.638 C384.334667,16.638 388.768333,17.7033333 392.685,19.834 C396.601667,21.9646667 399.641,24.9883333 401.803,28.905 C403.965,32.8216667 405.046,37.318 405.046,42.394 Z M391.416,38.634 C391.353333,35.25 390.131333,32.5396667 387.75,30.503 C385.368667,28.4663333 382.454667,27.448 379.008,27.448 C375.749333,27.448 373.007667,28.435 370.783,30.409 C368.558333,32.383 367.195333,35.1246667 366.694,38.634 L391.416,38.634 Z"/><polygon points="477.52 3.948 477.52 14.57 450.166 14.57 450.166 31.396 471.128 31.396 471.128 41.83 450.166 41.83 450.166 69.56 437.006 69.56 437.006 3.948"/><path d="M499.986 25.568C501.678 22.8106667 503.887 20.6486667 506.613 19.082 509.339 17.5153333 512.456667 16.732 515.966 16.732L515.966 30.55 512.488 30.55C508.352 30.55 505.234333 31.5213333 503.135 33.464 501.035667 35.4066667 499.986 38.7906667 499.986 43.616L499.986 69.56 486.826 69.56 486.826 17.484 499.986 17.484 499.986 25.568ZM521.418 43.334C521.418 38.07 522.467667 33.4013333 524.567 29.328 526.666333 25.2546667 529.517667 22.1213333 533.121 19.928 536.724333 17.7346667 540.750667 16.638 545.2 16.638 549.085333 16.638 552.485 17.4213333 555.399 18.988 558.313 20.5546667 560.647333 22.5286667 562.402 24.91L562.402 17.484 575.656 17.484 575.656 69.56 562.402 69.56 562.402 61.946C560.71 64.39 558.375667 66.411 555.399 68.009 552.422333 69.607 548.991333 70.406 545.106 70.406 540.719333 70.406 536.724333 69.278 533.121 67.022 529.517667 64.766 526.666333 61.5856667 524.567 57.481 522.467667 53.3763333 521.418 48.6606667 521.418 43.334ZM562.402 43.522C562.402 40.326 561.775333 37.5843333 560.522 35.297 559.268667 33.0096667 557.576667 31.255 555.446 30.033 553.315333 28.811 551.028 28.2 548.584 28.2 546.14 28.2 543.884 28.7953333 541.816 29.986 539.748 31.1766667 538.071667 32.9156667 536.787 35.203 535.502333 37.4903333 534.86 40.2006667 534.86 43.334 534.86 46.4673333 535.502333 49.209 536.787 51.559 538.071667 53.909 539.763667 55.7106667 541.863 56.964 543.962333 58.2173333 546.202667 58.844 548.584 58.844 551.028 58.844 553.315333 58.233 555.446 57.011 557.576667 55.789 559.268667 54.0343333 560.522 51.747 561.775333 49.4596667 562.402 46.718 562.402 43.522ZM637.696 17.484 637.696 69.56 624.442 69.56 624.442 62.98C622.75 65.236 620.541 67.0063333 617.815 68.291 615.089 69.5756667 612.128 70.218 608.932 70.218 604.858667 70.218 601.255333 69.3563333 598.122 67.633 594.988667 65.9096667 592.529 63.3716667 590.743 60.019 588.957 56.6663333 588.064 52.6713333 588.064 48.034L588.064 17.484 601.224 17.484 601.224 46.154C601.224 50.29 602.258 53.4703333 604.326 55.695 606.394 57.9196667 609.214 59.032 612.786 59.032 616.420667 59.032 619.272 57.9196667 621.34 55.695 623.408 53.4703333 624.442 50.29 624.442 46.154L624.442 17.484 637.696 17.484Z"/></g></svg>